<mxfile host="65bd71144e">
    <diagram id="iu-9Q0I3nVZPA6guKDX-" name="Home">
        <mxGraphModel dx="2648" dy="2270" grid="1" gridSize="10" guides="1" tooltips="1" connect="1" arrows="1" fold="1" page="1" pageScale="1" pageWidth="850" pageHeight="1100" math="0" shadow="0">
            <root>
                <mxCell id="0"/>
                <mxCell id="1" parent="0"/>
                <mxCell id="104" value="" style="rounded=0;whiteSpace=wrap;html=1;labelBackgroundColor=none;sketch=0;fontSize=17;fontColor=#58974a;fillColor=#f5f5f5;" parent="1" vertex="1">
                    <mxGeometry y="160" width="1600" height="1080" as="geometry"/>
                </mxCell>
                <mxCell id="12" value="" style="html=1;shadow=0;dashed=0;shape=mxgraph.bootstrap.rrect;rSize=5;strokeColor=#dddddd;rounded=0;fontSize=12;align=center;" parent="1" vertex="1">
                    <mxGeometry x="1170" y="2463" width="330" height="400" as="geometry"/>
                </mxCell>
                <mxCell id="13" value="320x200" style="shape=rect;fontSize=24;fillColor=#f0f0f0;strokeColor=none;fontColor=#999999;whiteSpace=wrap;" parent="12" vertex="1">
                    <mxGeometry x="5" y="5" width="320" height="200" as="geometry"/>
                </mxCell>
                <mxCell id="14" value="Thumbnail label" style="html=1;shadow=0;dashed=0;shape=mxgraph.bootstrap.anchor;fontSize=26;align=left;whiteSpace=wrap;" parent="12" vertex="1">
                    <mxGeometry x="15" y="220" width="300" height="40" as="geometry"/>
                </mxCell>
                <mxCell id="15" value="Cras justo odio, dapibus ac facilisis in, egestas eget quam. Donec id elit non mi porta gravida at eget metus. Nullam id dolor id nibh ultricies vehicula ut id elit." style="html=1;shadow=0;dashed=0;shape=mxgraph.bootstrap.anchor;strokeColor=#dddddd;whiteSpace=wrap;align=left;verticalAlign=top;fontSize=14;whiteSpace=wrap;" parent="12" vertex="1">
                    <mxGeometry x="15" y="260" width="300" height="80" as="geometry"/>
                </mxCell>
                <mxCell id="16" value="Button" style="html=1;shadow=0;dashed=0;shape=mxgraph.bootstrap.rrect;rSize=5;fontSize=16;fillColor=#3D8BCD;strokeColor=none;fontColor=#ffffff;whiteSpace=wrap;" parent="12" vertex="1">
                    <mxGeometry y="1" width="80" height="40" relative="1" as="geometry">
                        <mxPoint x="15" y="-60" as="offset"/>
                    </mxGeometry>
                </mxCell>
                <mxCell id="17" value="Button" style="html=1;shadow=0;dashed=0;shape=mxgraph.bootstrap.rrect;rSize=5;fontSize=16;strokeColor=#dddddd;whiteSpace=wrap;" parent="12" vertex="1">
                    <mxGeometry y="1" width="80" height="40" relative="1" as="geometry">
                        <mxPoint x="100" y="-60" as="offset"/>
                    </mxGeometry>
                </mxCell>
                <mxCell id="32" value="Tap target" style="html=1;shadow=0;dashed=0;shape=mxgraph.bootstrap.rect;strokeColor=none;fillColor=none;fontColor=#999999;align=left;spacingLeft=5;whiteSpace=wrap;rounded=0;" parent="1" vertex="1">
                    <mxGeometry x="525" y="2373" width="200" height="20" as="geometry"/>
                </mxCell>
                <mxCell id="33" value="Profile Screen" style="html=1;shadow=0;dashed=0;shape=mxgraph.bootstrap.rrect;rSize=5;strokeColor=#dddddd;align=left;spacingLeft=10;fontSize=16;whiteSpace=wrap;rounded=0;" parent="1" vertex="1">
                    <mxGeometry x="525" y="2393" width="390" height="40" as="geometry"/>
                </mxCell>
                <mxCell id="34" value="" style="shape=triangle;strokeColor=none;fillColor=#000000;direction=south;rounded=0;shadow=1;fontSize=12;fontColor=#000000;align=center;html=1;" parent="1" vertex="1">
                    <mxGeometry x="895" y="2410" width="10" height="5" as="geometry"/>
                </mxCell>
                <mxCell id="35" value="Send to Group" style="html=1;shadow=0;dashed=0;shape=mxgraph.bootstrap.rect;strokeColor=none;fillColor=none;fontColor=#999999;align=left;spacingLeft=5;whiteSpace=wrap;rounded=0;" parent="1" vertex="1">
                    <mxGeometry x="130" y="2370" width="200" height="20" as="geometry"/>
                </mxCell>
                <mxCell id="36" value="Top Management" style="html=1;shadow=0;dashed=0;shape=mxgraph.bootstrap.checkbox;fontSize=12;strokeColor=#999999;align=left;labelPosition=right;spacingLeft=5;rounded=0;" parent="1" vertex="1">
                    <mxGeometry x="140" y="2393" width="14" height="14" as="geometry"/>
                </mxCell>
                <mxCell id="37" value="Marketing Department" style="html=1;shadow=0;dashed=0;shape=mxgraph.bootstrap.rrect;fontSize=12;rSize=3;strokeColor=#999999;align=left;labelPosition=right;spacingLeft=5;rounded=0;" parent="1" vertex="1">
                    <mxGeometry x="140" y="2413" width="14" height="14" as="geometry"/>
                </mxCell>
                <mxCell id="38" value="Design Department" style="html=1;shadow=0;dashed=0;shape=mxgraph.bootstrap.checkbox;fontSize=12;strokeColor=#999999;align=left;labelPosition=right;spacingLeft=5;rounded=0;" parent="1" vertex="1">
                    <mxGeometry x="140" y="2433" width="14" height="14" as="geometry"/>
                </mxCell>
                <mxCell id="39" value="Financial Department" style="html=1;shadow=0;dashed=0;shape=mxgraph.bootstrap.rrect;fontSize=12;rSize=3;strokeColor=#999999;align=left;labelPosition=right;spacingLeft=5;rounded=0;" parent="1" vertex="1">
                    <mxGeometry x="140" y="2453" width="14" height="14" as="geometry"/>
                </mxCell>
                <mxCell id="40" value="Supply Department" style="html=1;shadow=0;dashed=0;shape=mxgraph.bootstrap.rrect;fontSize=12;rSize=3;strokeColor=#999999;align=left;labelPosition=right;spacingLeft=5;rounded=0;" parent="1" vertex="1">
                    <mxGeometry x="140" y="2473" width="14" height="14" as="geometry"/>
                </mxCell>
                <mxCell id="41" value="Set Type" style="html=1;shadow=0;dashed=0;shape=mxgraph.bootstrap.rect;strokeColor=none;fillColor=none;fontColor=#999999;align=left;spacingLeft=5;whiteSpace=wrap;rounded=0;" parent="1" vertex="1">
                    <mxGeometry x="525" y="2453" width="200" height="20" as="geometry"/>
                </mxCell>
                <mxCell id="42" value="" style="shape=ellipse;dashed=0;strokeColor=#999999;fillColor=#ffffff;html=1;rounded=0;shadow=1;fontSize=12;fontColor=#000000;align=center;" parent="1" vertex="1">
                    <mxGeometry x="535" y="2476" width="14" height="14" as="geometry"/>
                </mxCell>
                <mxCell id="43" value="News" style="html=1;shadow=0;dashed=0;shape=mxgraph.bootstrap.rrect;align=center;rSize=3;strokeColor=none;fillColor=#58B957;fontColor=#ffffff;fontStyle=1;fontSize=10;whiteSpace=wrap;rounded=0;" parent="1" vertex="1">
                    <mxGeometry x="555" y="2476" width="40" height="14" as="geometry"/>
                </mxCell>
                <mxCell id="44" value="" style="html=1;shadow=0;dashed=0;shape=mxgraph.bootstrap.radioButton;strokeColor=#999999;fillColor=#ffffff;rounded=0;fontSize=12;fontColor=#000000;align=center;" parent="1" vertex="1">
                    <mxGeometry x="535" y="2496" width="14" height="14" as="geometry"/>
                </mxCell>
                <mxCell id="45" value="Reports" style="html=1;shadow=0;dashed=0;shape=mxgraph.bootstrap.rrect;align=center;rSize=3;strokeColor=none;fillColor=#55BFE0;fontColor=#ffffff;fontStyle=1;fontSize=10;whiteSpace=wrap;rounded=0;" parent="1" vertex="1">
                    <mxGeometry x="555" y="2496" width="50" height="14" as="geometry"/>
                </mxCell>
                <mxCell id="46" value="" style="shape=ellipse;dashed=0;strokeColor=#999999;fillColor=#ffffff;html=1;rounded=0;shadow=1;fontSize=12;fontColor=#000000;align=center;" parent="1" vertex="1">
                    <mxGeometry x="535" y="2516" width="14" height="14" as="geometry"/>
                </mxCell>
                <mxCell id="47" value="Documents" style="html=1;shadow=0;dashed=0;shape=mxgraph.bootstrap.rrect;align=center;rSize=3;strokeColor=none;fillColor=#EFAC43;fontColor=#ffffff;fontStyle=1;fontSize=10;whiteSpace=wrap;rounded=0;" parent="1" vertex="1">
                    <mxGeometry x="555" y="2516" width="70" height="14" as="geometry"/>
                </mxCell>
                <mxCell id="48" value="" style="shape=ellipse;dashed=0;strokeColor=#999999;fillColor=#ffffff;html=1;rounded=0;shadow=1;fontSize=12;fontColor=#000000;align=center;" parent="1" vertex="1">
                    <mxGeometry x="535" y="2536" width="14" height="14" as="geometry"/>
                </mxCell>
                <mxCell id="49" value="Media" style="html=1;shadow=0;dashed=0;shape=mxgraph.bootstrap.rrect;align=center;rSize=3;strokeColor=none;fillColor=#3D8BCD;fontColor=#ffffff;fontStyle=1;fontSize=10;whiteSpace=wrap;rounded=0;" parent="1" vertex="1">
                    <mxGeometry x="555" y="2536" width="40" height="14" as="geometry"/>
                </mxCell>
                <mxCell id="50" value="" style="shape=ellipse;dashed=0;strokeColor=#999999;fillColor=#ffffff;html=1;rounded=0;shadow=1;fontSize=12;fontColor=#000000;align=center;" parent="1" vertex="1">
                    <mxGeometry x="535" y="2556" width="14" height="14" as="geometry"/>
                </mxCell>
                <mxCell id="51" value="Text" style="html=1;shadow=0;dashed=0;shape=mxgraph.bootstrap.rrect;align=center;rSize=3;strokeColor=none;fillColor=#999999;fontColor=#ffffff;fontStyle=1;fontSize=10;whiteSpace=wrap;rounded=0;" parent="1" vertex="1">
                    <mxGeometry x="555" y="2556" width="30" height="14" as="geometry"/>
                </mxCell>
                <mxCell id="52" value="Save Template" style="html=1;shadow=0;dashed=0;shape=mxgraph.bootstrap.rrect;align=center;rSize=5;strokeColor=none;fillColor=#3D8BCD;fontColor=#ffffff;fontSize=16;whiteSpace=wrap;rounded=0;" parent="1" vertex="1">
                    <mxGeometry x="130" y="2530" width="150" height="40" as="geometry"/>
                </mxCell>
                <mxCell id="53" value="Cancel" style="html=1;shadow=0;dashed=0;shape=mxgraph.bootstrap.rrect;align=center;rSize=5;strokeColor=#dddddd;fontSize=16;whiteSpace=wrap;rounded=0;" parent="1" vertex="1">
                    <mxGeometry x="300" y="2530" width="100" height="40" as="geometry"/>
                </mxCell>
                <mxCell id="54" value="Delete Template" style="html=1;shadow=0;dashed=0;shape=mxgraph.bootstrap.rrect;align=center;rSize=5;strokeColor=none;fillColor=#DB524C;fontColor=#ffffff;fontSize=16;whiteSpace=wrap;rounded=0;" parent="1" vertex="1">
                    <mxGeometry x="745" y="2613" width="170" height="40" as="geometry"/>
                </mxCell>
                <mxCell id="124" value="&lt;font style=&quot;font-size: 60px;&quot;&gt;Category&lt;/font&gt;" style="rounded=0;whiteSpace=wrap;html=1;labelBackgroundColor=none;sketch=0;fontSize=20;fontColor=#58974a;fillColor=#FFFFFF;" parent="1" vertex="1">
                    <mxGeometry x="200" y="290" width="1200" height="300" as="geometry"/>
                </mxCell>
                <mxCell id="125" value="&lt;font style=&quot;font-size: 60px;&quot;&gt;Footer&lt;/font&gt;" style="rounded=0;whiteSpace=wrap;html=1;labelBackgroundColor=none;sketch=0;fontSize=20;fontColor=#58974a;fillColor=#fbfbfb;" parent="1" vertex="1">
                    <mxGeometry y="1240" width="1600" height="330" as="geometry"/>
                </mxCell>
                <mxCell id="126" value="&lt;span style=&quot;color: rgba(0, 0, 0, 0.54); font-family: Roboto, &amp;quot;Helvetica Neue&amp;quot;, Helvetica, Arial, 文泉驛正黑, &amp;quot;WenQuanYi Zen Hei&amp;quot;, &amp;quot;Hiragino Sans GB&amp;quot;, &amp;quot;儷黑 Pro&amp;quot;, &amp;quot;LiHei Pro&amp;quot;, &amp;quot;Heiti TC&amp;quot;, 微軟正黑體, &amp;quot;Microsoft JhengHei UI&amp;quot;, &amp;quot;Microsoft JhengHei&amp;quot;, sans-serif; text-align: start; background-color: rgb(251, 251, 251);&quot;&gt;&lt;font style=&quot;font-size: 20px;&quot;&gt;© 2023 Webtech Bookstore. All Rights Reserved .&lt;/font&gt;&lt;/span&gt;" style="text;html=1;strokeColor=none;fillColor=none;align=center;verticalAlign=middle;whiteSpace=wrap;rounded=0;labelBackgroundColor=none;sketch=0;fontSize=20;fontColor=#58974a;" parent="1" vertex="1">
                    <mxGeometry x="200" y="1520" width="500" height="50" as="geometry"/>
                </mxCell>
                <mxCell id="128" value="" style="line;strokeWidth=2;html=1;labelBackgroundColor=none;sketch=0;fontSize=20;fontColor=#58974a;fillColor=#fbfbfb;" parent="1" vertex="1">
                    <mxGeometry x="440" y="1170" width="610" height="10" as="geometry"/>
                </mxCell>
                <mxCell id="z7ZdVrglcx-ecVN2qqOi-131" value="&lt;b style=&quot;&quot;&gt;&lt;font color=&quot;#bd77b1&quot;&gt;from&amp;nbsp;&lt;/font&gt;&lt;/b&gt;&lt;span style=&quot;color: rgb(62, 148, 134); text-align: left;&quot;&gt;Bookstore &lt;/span&gt;&lt;span style=&quot;text-align: left;&quot;&gt;&lt;font color=&quot;#bd77b1&quot;&gt;&lt;b&gt;import&lt;/b&gt;&lt;/font&gt;&lt;/span&gt;" style="text;html=1;strokeColor=none;fillColor=none;align=center;verticalAlign=middle;whiteSpace=wrap;rounded=0;labelBackgroundColor=none;sketch=0;fontSize=17;fontColor=#FFFFFF;" parent="1" vertex="1">
                    <mxGeometry x="250" y="-90" width="210" height="50" as="geometry"/>
                </mxCell>
                <mxCell id="aUzokdH6n-494Q2fgKW0-128" value="" style="html=1;shadow=0;dashed=0;shape=mxgraph.bootstrap.rect;fillColor=#222222;strokeColor=none;whiteSpace=wrap;rounded=0;fontSize=12;fontColor=#000000;align=center;" vertex="1" parent="1">
                    <mxGeometry width="1600" height="160" as="geometry"/>
                </mxCell>
                <mxCell id="aUzokdH6n-494Q2fgKW0-129" value="&lt;b style=&quot;font-size: 17px;&quot;&gt;&lt;font color=&quot;#878787&quot; style=&quot;font-size: 17px;&quot;&gt;1&lt;/font&gt;&lt;font style=&quot;font-size: 17px;&quot; color=&quot;#49788b&quot;&gt;&amp;nbsp; Webtech&lt;/font&gt;&lt;font style=&quot;font-size: 17px;&quot; color=&quot;#3e9486&quot;&gt; Bookstore&lt;/font&gt;&lt;font style=&quot;font-size: 17px;&quot; color=&quot;#c9c375&quot;&gt;()&lt;/font&gt;&lt;font style=&quot;font-size: 17px;&quot; color=&quot;#ffffff&quot;&gt;:&lt;/font&gt;&lt;/b&gt;" style="html=1;shadow=0;dashed=0;fillColor=none;strokeColor=none;shape=mxgraph.bootstrap.rect;fontColor=#999999;fontSize=14;whiteSpace=wrap;" vertex="1" parent="1">
                    <mxGeometry x="200" y="40" width="200" height="80" as="geometry"/>
                </mxCell>
                <mxCell id="aUzokdH6n-494Q2fgKW0-130" value="&amp;nbsp; &lt;font color=&quot;#36ce77&quot;&gt;WBstore@lnoueryo&lt;/font&gt;&lt;font color=&quot;#ffffff&quot;&gt;:~ $ python for beginner&lt;/font&gt;" style="rounded=1;whiteSpace=wrap;html=1;fontSize=17;fontColor=#49788b;align=left;" vertex="1" parent="1">
                    <mxGeometry x="440" y="50" width="960" height="60" as="geometry"/>
                </mxCell>
                <mxCell id="aUzokdH6n-494Q2fgKW0-131" value="" style="group" vertex="1" connectable="0" parent="1">
                    <mxGeometry x="1300" y="60" width="80" height="40" as="geometry"/>
                </mxCell>
                <mxCell id="aUzokdH6n-494Q2fgKW0-132" value="" style="rounded=1;whiteSpace=wrap;html=1;labelBackgroundColor=#FFFFFF;sketch=0;fontSize=17;fontColor=#FFFFFF;fillColor=#FFFFFF;" vertex="1" parent="aUzokdH6n-494Q2fgKW0-131">
                    <mxGeometry width="80" height="40" as="geometry"/>
                </mxCell>
                <mxCell id="aUzokdH6n-494Q2fgKW0-133" value="" style="shape=image;verticalLabelPosition=bottom;labelBackgroundColor=default;verticalAlign=top;aspect=fixed;imageAspect=0;image=data:image/svg+xml,PHN2ZyB4bWxucz0iaHR0cDovL3d3dy53My5vcmcvMjAwMC9zdmciIHZpZXdCb3g9IjAgMCAyNCAyNCI+PHBhdGggZD0iTTkuNSwzQTYuNSw2LjUgMCAwLDEgMTYsOS41QzE2LDExLjExIDE1LjQxLDEyLjU5IDE0LjQ0LDEzLjczTDE0LjcxLDE0SDE1LjVMMjAuNSwxOUwxOSwyMC41TDE0LDE1LjVWMTQuNzFMMTMuNzMsMTQuNDRDMTIuNTksMTUuNDEgMTEuMTEsMTYgOS41LDE2QTYuNSw2LjUgMCAwLDEgMyw5LjVBNi41LDYuNSAwIDAsMSA5LjUsM005LjUsNUM3LDUgNSw3IDUsOS41QzUsMTIgNywxNCA5LjUsMTRDMTIsMTQgMTQsMTIgMTQsOS41QzE0LDcgMTIsNSA5LjUsNVoiLz48L3N2Zz4=;" vertex="1" parent="aUzokdH6n-494Q2fgKW0-131">
                    <mxGeometry x="28" y="8" width="24" height="24" as="geometry"/>
                </mxCell>
                <mxCell id="aUzokdH6n-494Q2fgKW0-134" value="&lt;font color=&quot;#d38b70&quot;&gt;&lt;b&gt;Frontend&lt;/b&gt;&lt;/font&gt;" style="text;html=1;strokeColor=none;fillColor=none;align=center;verticalAlign=middle;whiteSpace=wrap;rounded=0;labelBackgroundColor=none;sketch=0;fontSize=17;fontColor=#FFFFFF;" vertex="1" parent="1">
                    <mxGeometry x="440" y="110" width="160" height="50" as="geometry"/>
                </mxCell>
                <mxCell id="aUzokdH6n-494Q2fgKW0-135" value="&lt;font color=&quot;#7ac1e0&quot;&gt;&lt;b&gt;Backend&lt;/b&gt;&lt;/font&gt;" style="text;html=1;strokeColor=none;fillColor=none;align=center;verticalAlign=middle;whiteSpace=wrap;rounded=0;labelBackgroundColor=none;sketch=0;fontSize=17;fontColor=#FFFFFF;" vertex="1" parent="1">
                    <mxGeometry x="600" y="110" width="160" height="50" as="geometry"/>
                </mxCell>
                <mxCell id="aUzokdH6n-494Q2fgKW0-136" value="&lt;b&gt;&lt;font color=&quot;#58974a&quot;&gt;# DevOps&lt;/font&gt;&lt;/b&gt;" style="text;html=1;strokeColor=none;fillColor=none;align=center;verticalAlign=middle;whiteSpace=wrap;rounded=0;labelBackgroundColor=none;sketch=0;fontSize=17;fontColor=#FFFFFF;" vertex="1" parent="1">
                    <mxGeometry x="920" y="110" width="160" height="50" as="geometry"/>
                </mxCell>
                <mxCell id="aUzokdH6n-494Q2fgKW0-137" value="&lt;b&gt;&lt;font color=&quot;#58974a&quot;&gt;# SRE&lt;/font&gt;&lt;/b&gt;" style="text;html=1;strokeColor=none;fillColor=none;align=center;verticalAlign=middle;whiteSpace=wrap;rounded=0;labelBackgroundColor=none;sketch=0;fontSize=17;fontColor=#FFFFFF;" vertex="1" parent="1">
                    <mxGeometry x="1080" y="110" width="160" height="50" as="geometry"/>
                </mxCell>
                <mxCell id="aUzokdH6n-494Q2fgKW0-138" value="&lt;b&gt;&lt;font color=&quot;#58974a&quot;&gt;# QA&lt;/font&gt;&lt;/b&gt;" style="text;html=1;strokeColor=none;fillColor=none;align=center;verticalAlign=middle;whiteSpace=wrap;rounded=0;labelBackgroundColor=none;sketch=0;fontSize=17;fontColor=#FFFFFF;" vertex="1" parent="1">
                    <mxGeometry x="1240" y="110" width="160" height="50" as="geometry"/>
                </mxCell>
                <mxCell id="aUzokdH6n-494Q2fgKW0-139" value="&lt;font color=&quot;#bd77b1&quot;&gt;&lt;b&gt;Mobile&lt;/b&gt;&lt;/font&gt;" style="text;html=1;strokeColor=none;fillColor=none;align=center;verticalAlign=middle;whiteSpace=wrap;rounded=0;labelBackgroundColor=none;sketch=0;fontSize=17;fontColor=#FFFFFF;" vertex="1" parent="1">
                    <mxGeometry x="760" y="110" width="160" height="50" as="geometry"/>
                </mxCell>
            </root>
        </mxGraphModel>
    </diagram>
    <diagram name="Book Collections" id="AzkUI0gB38Serak8jHaA">
        <mxGraphModel dx="2648" dy="1170" grid="1" gridSize="10" guides="1" tooltips="1" connect="1" arrows="1" fold="1" page="1" pageScale="1" pageWidth="850" pageHeight="1100" math="0" shadow="0">
            <root>
                <mxCell id="Fp4AKJfs3A7mnwe-e1Vw-0"/>
                <mxCell id="Fp4AKJfs3A7mnwe-e1Vw-1" parent="Fp4AKJfs3A7mnwe-e1Vw-0"/>
                <mxCell id="Fp4AKJfs3A7mnwe-e1Vw-2" value="" style="rounded=0;whiteSpace=wrap;html=1;labelBackgroundColor=none;sketch=0;fontSize=17;fontColor=#58974a;fillColor=#f5f5f5;" parent="Fp4AKJfs3A7mnwe-e1Vw-1" vertex="1">
                    <mxGeometry y="160" width="1600" height="1080" as="geometry"/>
                </mxCell>
                <mxCell id="Fp4AKJfs3A7mnwe-e1Vw-3" value="" style="html=1;shadow=0;dashed=0;shape=mxgraph.bootstrap.rect;fillColor=#222222;strokeColor=none;whiteSpace=wrap;rounded=0;fontSize=12;fontColor=#000000;align=center;" parent="Fp4AKJfs3A7mnwe-e1Vw-1" vertex="1">
                    <mxGeometry width="1600" height="160" as="geometry"/>
                </mxCell>
                <mxCell id="Fp4AKJfs3A7mnwe-e1Vw-4" value="" style="html=1;shadow=0;dashed=0;shape=mxgraph.bootstrap.rrect;rSize=5;strokeColor=#dddddd;rounded=0;fontSize=12;align=center;" parent="Fp4AKJfs3A7mnwe-e1Vw-1" vertex="1">
                    <mxGeometry x="1170" y="2463" width="330" height="400" as="geometry"/>
                </mxCell>
                <mxCell id="Fp4AKJfs3A7mnwe-e1Vw-5" value="320x200" style="shape=rect;fontSize=24;fillColor=#f0f0f0;strokeColor=none;fontColor=#999999;whiteSpace=wrap;" parent="Fp4AKJfs3A7mnwe-e1Vw-4" vertex="1">
                    <mxGeometry x="5" y="5" width="320" height="200" as="geometry"/>
                </mxCell>
                <mxCell id="Fp4AKJfs3A7mnwe-e1Vw-6" value="Thumbnail label" style="html=1;shadow=0;dashed=0;shape=mxgraph.bootstrap.anchor;fontSize=26;align=left;whiteSpace=wrap;" parent="Fp4AKJfs3A7mnwe-e1Vw-4" vertex="1">
                    <mxGeometry x="15" y="220" width="300" height="40" as="geometry"/>
                </mxCell>
                <mxCell id="Fp4AKJfs3A7mnwe-e1Vw-7" value="Cras justo odio, dapibus ac facilisis in, egestas eget quam. Donec id elit non mi porta gravida at eget metus. Nullam id dolor id nibh ultricies vehicula ut id elit." style="html=1;shadow=0;dashed=0;shape=mxgraph.bootstrap.anchor;strokeColor=#dddddd;whiteSpace=wrap;align=left;verticalAlign=top;fontSize=14;whiteSpace=wrap;" parent="Fp4AKJfs3A7mnwe-e1Vw-4" vertex="1">
                    <mxGeometry x="15" y="260" width="300" height="80" as="geometry"/>
                </mxCell>
                <mxCell id="Fp4AKJfs3A7mnwe-e1Vw-8" value="Button" style="html=1;shadow=0;dashed=0;shape=mxgraph.bootstrap.rrect;rSize=5;fontSize=16;fillColor=#3D8BCD;strokeColor=none;fontColor=#ffffff;whiteSpace=wrap;" parent="Fp4AKJfs3A7mnwe-e1Vw-4" vertex="1">
                    <mxGeometry y="1" width="80" height="40" relative="1" as="geometry">
                        <mxPoint x="15" y="-60" as="offset"/>
                    </mxGeometry>
                </mxCell>
                <mxCell id="Fp4AKJfs3A7mnwe-e1Vw-9" value="Button" style="html=1;shadow=0;dashed=0;shape=mxgraph.bootstrap.rrect;rSize=5;fontSize=16;strokeColor=#dddddd;whiteSpace=wrap;" parent="Fp4AKJfs3A7mnwe-e1Vw-4" vertex="1">
                    <mxGeometry y="1" width="80" height="40" relative="1" as="geometry">
                        <mxPoint x="100" y="-60" as="offset"/>
                    </mxGeometry>
                </mxCell>
                <mxCell id="Fp4AKJfs3A7mnwe-e1Vw-10" value="Tap target" style="html=1;shadow=0;dashed=0;shape=mxgraph.bootstrap.rect;strokeColor=none;fillColor=none;fontColor=#999999;align=left;spacingLeft=5;whiteSpace=wrap;rounded=0;" parent="Fp4AKJfs3A7mnwe-e1Vw-1" vertex="1">
                    <mxGeometry x="525" y="2373" width="200" height="20" as="geometry"/>
                </mxCell>
                <mxCell id="Fp4AKJfs3A7mnwe-e1Vw-11" value="Profile Screen" style="html=1;shadow=0;dashed=0;shape=mxgraph.bootstrap.rrect;rSize=5;strokeColor=#dddddd;align=left;spacingLeft=10;fontSize=16;whiteSpace=wrap;rounded=0;" parent="Fp4AKJfs3A7mnwe-e1Vw-1" vertex="1">
                    <mxGeometry x="525" y="2393" width="390" height="40" as="geometry"/>
                </mxCell>
                <mxCell id="Fp4AKJfs3A7mnwe-e1Vw-12" value="" style="shape=triangle;strokeColor=none;fillColor=#000000;direction=south;rounded=0;shadow=1;fontSize=12;fontColor=#000000;align=center;html=1;" parent="Fp4AKJfs3A7mnwe-e1Vw-1" vertex="1">
                    <mxGeometry x="895" y="2410" width="10" height="5" as="geometry"/>
                </mxCell>
                <mxCell id="Fp4AKJfs3A7mnwe-e1Vw-13" value="Send to Group" style="html=1;shadow=0;dashed=0;shape=mxgraph.bootstrap.rect;strokeColor=none;fillColor=none;fontColor=#999999;align=left;spacingLeft=5;whiteSpace=wrap;rounded=0;" parent="Fp4AKJfs3A7mnwe-e1Vw-1" vertex="1">
                    <mxGeometry x="130" y="2370" width="200" height="20" as="geometry"/>
                </mxCell>
                <mxCell id="Fp4AKJfs3A7mnwe-e1Vw-14" value="Top Management" style="html=1;shadow=0;dashed=0;shape=mxgraph.bootstrap.checkbox;fontSize=12;strokeColor=#999999;align=left;labelPosition=right;spacingLeft=5;rounded=0;" parent="Fp4AKJfs3A7mnwe-e1Vw-1" vertex="1">
                    <mxGeometry x="140" y="2393" width="14" height="14" as="geometry"/>
                </mxCell>
                <mxCell id="Fp4AKJfs3A7mnwe-e1Vw-15" value="Marketing Department" style="html=1;shadow=0;dashed=0;shape=mxgraph.bootstrap.rrect;fontSize=12;rSize=3;strokeColor=#999999;align=left;labelPosition=right;spacingLeft=5;rounded=0;" parent="Fp4AKJfs3A7mnwe-e1Vw-1" vertex="1">
                    <mxGeometry x="140" y="2413" width="14" height="14" as="geometry"/>
                </mxCell>
                <mxCell id="Fp4AKJfs3A7mnwe-e1Vw-16" value="Design Department" style="html=1;shadow=0;dashed=0;shape=mxgraph.bootstrap.checkbox;fontSize=12;strokeColor=#999999;align=left;labelPosition=right;spacingLeft=5;rounded=0;" parent="Fp4AKJfs3A7mnwe-e1Vw-1" vertex="1">
                    <mxGeometry x="140" y="2433" width="14" height="14" as="geometry"/>
                </mxCell>
                <mxCell id="Fp4AKJfs3A7mnwe-e1Vw-17" value="Financial Department" style="html=1;shadow=0;dashed=0;shape=mxgraph.bootstrap.rrect;fontSize=12;rSize=3;strokeColor=#999999;align=left;labelPosition=right;spacingLeft=5;rounded=0;" parent="Fp4AKJfs3A7mnwe-e1Vw-1" vertex="1">
                    <mxGeometry x="140" y="2453" width="14" height="14" as="geometry"/>
                </mxCell>
                <mxCell id="Fp4AKJfs3A7mnwe-e1Vw-18" value="Supply Department" style="html=1;shadow=0;dashed=0;shape=mxgraph.bootstrap.rrect;fontSize=12;rSize=3;strokeColor=#999999;align=left;labelPosition=right;spacingLeft=5;rounded=0;" parent="Fp4AKJfs3A7mnwe-e1Vw-1" vertex="1">
                    <mxGeometry x="140" y="2473" width="14" height="14" as="geometry"/>
                </mxCell>
                <mxCell id="Fp4AKJfs3A7mnwe-e1Vw-19" value="Set Type" style="html=1;shadow=0;dashed=0;shape=mxgraph.bootstrap.rect;strokeColor=none;fillColor=none;fontColor=#999999;align=left;spacingLeft=5;whiteSpace=wrap;rounded=0;" parent="Fp4AKJfs3A7mnwe-e1Vw-1" vertex="1">
                    <mxGeometry x="525" y="2453" width="200" height="20" as="geometry"/>
                </mxCell>
                <mxCell id="Fp4AKJfs3A7mnwe-e1Vw-20" value="" style="shape=ellipse;dashed=0;strokeColor=#999999;fillColor=#ffffff;html=1;rounded=0;shadow=1;fontSize=12;fontColor=#000000;align=center;" parent="Fp4AKJfs3A7mnwe-e1Vw-1" vertex="1">
                    <mxGeometry x="535" y="2476" width="14" height="14" as="geometry"/>
                </mxCell>
                <mxCell id="Fp4AKJfs3A7mnwe-e1Vw-21" value="News" style="html=1;shadow=0;dashed=0;shape=mxgraph.bootstrap.rrect;align=center;rSize=3;strokeColor=none;fillColor=#58B957;fontColor=#ffffff;fontStyle=1;fontSize=10;whiteSpace=wrap;rounded=0;" parent="Fp4AKJfs3A7mnwe-e1Vw-1" vertex="1">
                    <mxGeometry x="555" y="2476" width="40" height="14" as="geometry"/>
                </mxCell>
                <mxCell id="Fp4AKJfs3A7mnwe-e1Vw-22" value="" style="html=1;shadow=0;dashed=0;shape=mxgraph.bootstrap.radioButton;strokeColor=#999999;fillColor=#ffffff;rounded=0;fontSize=12;fontColor=#000000;align=center;" parent="Fp4AKJfs3A7mnwe-e1Vw-1" vertex="1">
                    <mxGeometry x="535" y="2496" width="14" height="14" as="geometry"/>
                </mxCell>
                <mxCell id="Fp4AKJfs3A7mnwe-e1Vw-23" value="Reports" style="html=1;shadow=0;dashed=0;shape=mxgraph.bootstrap.rrect;align=center;rSize=3;strokeColor=none;fillColor=#55BFE0;fontColor=#ffffff;fontStyle=1;fontSize=10;whiteSpace=wrap;rounded=0;" parent="Fp4AKJfs3A7mnwe-e1Vw-1" vertex="1">
                    <mxGeometry x="555" y="2496" width="50" height="14" as="geometry"/>
                </mxCell>
                <mxCell id="Fp4AKJfs3A7mnwe-e1Vw-24" value="" style="shape=ellipse;dashed=0;strokeColor=#999999;fillColor=#ffffff;html=1;rounded=0;shadow=1;fontSize=12;fontColor=#000000;align=center;" parent="Fp4AKJfs3A7mnwe-e1Vw-1" vertex="1">
                    <mxGeometry x="535" y="2516" width="14" height="14" as="geometry"/>
                </mxCell>
                <mxCell id="Fp4AKJfs3A7mnwe-e1Vw-25" value="Documents" style="html=1;shadow=0;dashed=0;shape=mxgraph.bootstrap.rrect;align=center;rSize=3;strokeColor=none;fillColor=#EFAC43;fontColor=#ffffff;fontStyle=1;fontSize=10;whiteSpace=wrap;rounded=0;" parent="Fp4AKJfs3A7mnwe-e1Vw-1" vertex="1">
                    <mxGeometry x="555" y="2516" width="70" height="14" as="geometry"/>
                </mxCell>
                <mxCell id="Fp4AKJfs3A7mnwe-e1Vw-26" value="" style="shape=ellipse;dashed=0;strokeColor=#999999;fillColor=#ffffff;html=1;rounded=0;shadow=1;fontSize=12;fontColor=#000000;align=center;" parent="Fp4AKJfs3A7mnwe-e1Vw-1" vertex="1">
                    <mxGeometry x="535" y="2536" width="14" height="14" as="geometry"/>
                </mxCell>
                <mxCell id="Fp4AKJfs3A7mnwe-e1Vw-27" value="Media" style="html=1;shadow=0;dashed=0;shape=mxgraph.bootstrap.rrect;align=center;rSize=3;strokeColor=none;fillColor=#3D8BCD;fontColor=#ffffff;fontStyle=1;fontSize=10;whiteSpace=wrap;rounded=0;" parent="Fp4AKJfs3A7mnwe-e1Vw-1" vertex="1">
                    <mxGeometry x="555" y="2536" width="40" height="14" as="geometry"/>
                </mxCell>
                <mxCell id="Fp4AKJfs3A7mnwe-e1Vw-28" value="" style="shape=ellipse;dashed=0;strokeColor=#999999;fillColor=#ffffff;html=1;rounded=0;shadow=1;fontSize=12;fontColor=#000000;align=center;" parent="Fp4AKJfs3A7mnwe-e1Vw-1" vertex="1">
                    <mxGeometry x="535" y="2556" width="14" height="14" as="geometry"/>
                </mxCell>
                <mxCell id="Fp4AKJfs3A7mnwe-e1Vw-29" value="Text" style="html=1;shadow=0;dashed=0;shape=mxgraph.bootstrap.rrect;align=center;rSize=3;strokeColor=none;fillColor=#999999;fontColor=#ffffff;fontStyle=1;fontSize=10;whiteSpace=wrap;rounded=0;" parent="Fp4AKJfs3A7mnwe-e1Vw-1" vertex="1">
                    <mxGeometry x="555" y="2556" width="30" height="14" as="geometry"/>
                </mxCell>
                <mxCell id="Fp4AKJfs3A7mnwe-e1Vw-30" value="Save Template" style="html=1;shadow=0;dashed=0;shape=mxgraph.bootstrap.rrect;align=center;rSize=5;strokeColor=none;fillColor=#3D8BCD;fontColor=#ffffff;fontSize=16;whiteSpace=wrap;rounded=0;" parent="Fp4AKJfs3A7mnwe-e1Vw-1" vertex="1">
                    <mxGeometry x="130" y="2530" width="150" height="40" as="geometry"/>
                </mxCell>
                <mxCell id="Fp4AKJfs3A7mnwe-e1Vw-31" value="Cancel" style="html=1;shadow=0;dashed=0;shape=mxgraph.bootstrap.rrect;align=center;rSize=5;strokeColor=#dddddd;fontSize=16;whiteSpace=wrap;rounded=0;" parent="Fp4AKJfs3A7mnwe-e1Vw-1" vertex="1">
                    <mxGeometry x="300" y="2530" width="100" height="40" as="geometry"/>
                </mxCell>
                <mxCell id="Fp4AKJfs3A7mnwe-e1Vw-32" value="Delete Template" style="html=1;shadow=0;dashed=0;shape=mxgraph.bootstrap.rrect;align=center;rSize=5;strokeColor=none;fillColor=#DB524C;fontColor=#ffffff;fontSize=16;whiteSpace=wrap;rounded=0;" parent="Fp4AKJfs3A7mnwe-e1Vw-1" vertex="1">
                    <mxGeometry x="745" y="2613" width="170" height="40" as="geometry"/>
                </mxCell>
                <mxCell id="Fp4AKJfs3A7mnwe-e1Vw-33" value="&lt;b style=&quot;font-size: 17px;&quot;&gt;&lt;font color=&quot;#878787&quot; style=&quot;font-size: 17px;&quot;&gt;1&lt;/font&gt;&lt;font style=&quot;font-size: 17px;&quot; color=&quot;#49788b&quot;&gt;&amp;nbsp; Webtech&lt;/font&gt;&lt;font style=&quot;font-size: 17px;&quot; color=&quot;#3e9486&quot;&gt; Bookstore&lt;/font&gt;&lt;font style=&quot;font-size: 17px;&quot; color=&quot;#c9c375&quot;&gt;()&lt;/font&gt;&lt;font style=&quot;font-size: 17px;&quot; color=&quot;#ffffff&quot;&gt;:&lt;/font&gt;&lt;/b&gt;" style="html=1;shadow=0;dashed=0;fillColor=none;strokeColor=none;shape=mxgraph.bootstrap.rect;fontColor=#999999;fontSize=14;whiteSpace=wrap;" parent="Fp4AKJfs3A7mnwe-e1Vw-1" vertex="1">
                    <mxGeometry x="200" y="40" width="200" height="80" as="geometry"/>
                </mxCell>
                <mxCell id="Fp4AKJfs3A7mnwe-e1Vw-34" value="&amp;nbsp; &lt;font color=&quot;#36ce77&quot;&gt;WBstore@lnoueryo&lt;/font&gt;&lt;font color=&quot;#ffffff&quot;&gt;:~ $ python for beginner&lt;/font&gt;" style="rounded=1;whiteSpace=wrap;html=1;fontSize=17;fontColor=#49788b;align=left;" parent="Fp4AKJfs3A7mnwe-e1Vw-1" vertex="1">
                    <mxGeometry x="440" y="50" width="960" height="60" as="geometry"/>
                </mxCell>
                <mxCell id="Fp4AKJfs3A7mnwe-e1Vw-35" value="" style="group" parent="Fp4AKJfs3A7mnwe-e1Vw-1" vertex="1" connectable="0">
                    <mxGeometry x="1300" y="60" width="80" height="40" as="geometry"/>
                </mxCell>
                <mxCell id="Fp4AKJfs3A7mnwe-e1Vw-36" value="" style="rounded=1;whiteSpace=wrap;html=1;labelBackgroundColor=#FFFFFF;sketch=0;fontSize=17;fontColor=#FFFFFF;fillColor=#FFFFFF;" parent="Fp4AKJfs3A7mnwe-e1Vw-35" vertex="1">
                    <mxGeometry width="80" height="40" as="geometry"/>
                </mxCell>
                <mxCell id="Fp4AKJfs3A7mnwe-e1Vw-37" value="" style="shape=image;verticalLabelPosition=bottom;labelBackgroundColor=default;verticalAlign=top;aspect=fixed;imageAspect=0;image=data:image/svg+xml,PHN2ZyB4bWxucz0iaHR0cDovL3d3dy53My5vcmcvMjAwMC9zdmciIHZpZXdCb3g9IjAgMCAyNCAyNCI+PHBhdGggZD0iTTkuNSwzQTYuNSw2LjUgMCAwLDEgMTYsOS41QzE2LDExLjExIDE1LjQxLDEyLjU5IDE0LjQ0LDEzLjczTDE0LjcxLDE0SDE1LjVMMjAuNSwxOUwxOSwyMC41TDE0LDE1LjVWMTQuNzFMMTMuNzMsMTQuNDRDMTIuNTksMTUuNDEgMTEuMTEsMTYgOS41LDE2QTYuNSw2LjUgMCAwLDEgMyw5LjVBNi41LDYuNSAwIDAsMSA5LjUsM005LjUsNUM3LDUgNSw3IDUsOS41QzUsMTIgNywxNCA5LjUsMTRDMTIsMTQgMTQsMTIgMTQsOS41QzE0LDcgMTIsNSA5LjUsNVoiLz48L3N2Zz4=;" parent="Fp4AKJfs3A7mnwe-e1Vw-35" vertex="1">
                    <mxGeometry x="28" y="8" width="24" height="24" as="geometry"/>
                </mxCell>
                <mxCell id="Fp4AKJfs3A7mnwe-e1Vw-38" value="&lt;font color=&quot;#d38b70&quot;&gt;&lt;b&gt;Frontend&lt;/b&gt;&lt;/font&gt;" style="text;html=1;strokeColor=none;fillColor=none;align=center;verticalAlign=middle;whiteSpace=wrap;rounded=0;labelBackgroundColor=none;sketch=0;fontSize=17;fontColor=#FFFFFF;" parent="Fp4AKJfs3A7mnwe-e1Vw-1" vertex="1">
                    <mxGeometry x="440" y="110" width="160" height="50" as="geometry"/>
                </mxCell>
                <mxCell id="Fp4AKJfs3A7mnwe-e1Vw-39" value="&lt;font color=&quot;#7ac1e0&quot;&gt;&lt;b&gt;Backend&lt;/b&gt;&lt;/font&gt;" style="text;html=1;strokeColor=none;fillColor=none;align=center;verticalAlign=middle;whiteSpace=wrap;rounded=0;labelBackgroundColor=none;sketch=0;fontSize=17;fontColor=#FFFFFF;" parent="Fp4AKJfs3A7mnwe-e1Vw-1" vertex="1">
                    <mxGeometry x="600" y="110" width="160" height="50" as="geometry"/>
                </mxCell>
                <mxCell id="Fp4AKJfs3A7mnwe-e1Vw-40" value="&lt;b&gt;&lt;font color=&quot;#58974a&quot;&gt;# DevOps&lt;/font&gt;&lt;/b&gt;" style="text;html=1;strokeColor=none;fillColor=none;align=center;verticalAlign=middle;whiteSpace=wrap;rounded=0;labelBackgroundColor=none;sketch=0;fontSize=17;fontColor=#FFFFFF;" parent="Fp4AKJfs3A7mnwe-e1Vw-1" vertex="1">
                    <mxGeometry x="920" y="110" width="160" height="50" as="geometry"/>
                </mxCell>
                <mxCell id="Fp4AKJfs3A7mnwe-e1Vw-41" value="&lt;b&gt;&lt;font color=&quot;#58974a&quot;&gt;# SRE&lt;/font&gt;&lt;/b&gt;" style="text;html=1;strokeColor=none;fillColor=none;align=center;verticalAlign=middle;whiteSpace=wrap;rounded=0;labelBackgroundColor=none;sketch=0;fontSize=17;fontColor=#FFFFFF;" parent="Fp4AKJfs3A7mnwe-e1Vw-1" vertex="1">
                    <mxGeometry x="1080" y="110" width="160" height="50" as="geometry"/>
                </mxCell>
                <mxCell id="Fp4AKJfs3A7mnwe-e1Vw-42" value="&lt;b&gt;&lt;font color=&quot;#58974a&quot;&gt;# QA&lt;/font&gt;&lt;/b&gt;" style="text;html=1;strokeColor=none;fillColor=none;align=center;verticalAlign=middle;whiteSpace=wrap;rounded=0;labelBackgroundColor=none;sketch=0;fontSize=17;fontColor=#FFFFFF;" parent="Fp4AKJfs3A7mnwe-e1Vw-1" vertex="1">
                    <mxGeometry x="1240" y="110" width="160" height="50" as="geometry"/>
                </mxCell>
                <mxCell id="Fp4AKJfs3A7mnwe-e1Vw-43" value="&lt;font color=&quot;#bd77b1&quot;&gt;&lt;b&gt;Mobile&lt;/b&gt;&lt;/font&gt;" style="text;html=1;strokeColor=none;fillColor=none;align=center;verticalAlign=middle;whiteSpace=wrap;rounded=0;labelBackgroundColor=none;sketch=0;fontSize=17;fontColor=#FFFFFF;" parent="Fp4AKJfs3A7mnwe-e1Vw-1" vertex="1">
                    <mxGeometry x="760" y="110" width="160" height="50" as="geometry"/>
                </mxCell>
                <mxCell id="Fp4AKJfs3A7mnwe-e1Vw-46" value="&lt;font style=&quot;font-size: 60px;&quot;&gt;フッター&lt;/font&gt;" style="rounded=0;whiteSpace=wrap;html=1;labelBackgroundColor=none;sketch=0;fontSize=20;fontColor=#58974a;fillColor=#fbfbfb;" parent="Fp4AKJfs3A7mnwe-e1Vw-1" vertex="1">
                    <mxGeometry y="1240" width="1600" height="330" as="geometry"/>
                </mxCell>
                <mxCell id="Fp4AKJfs3A7mnwe-e1Vw-47" value="&lt;span style=&quot;color: rgba(0, 0, 0, 0.54); font-family: Roboto, &amp;quot;Helvetica Neue&amp;quot;, Helvetica, Arial, 文泉驛正黑, &amp;quot;WenQuanYi Zen Hei&amp;quot;, &amp;quot;Hiragino Sans GB&amp;quot;, &amp;quot;儷黑 Pro&amp;quot;, &amp;quot;LiHei Pro&amp;quot;, &amp;quot;Heiti TC&amp;quot;, 微軟正黑體, &amp;quot;Microsoft JhengHei UI&amp;quot;, &amp;quot;Microsoft JhengHei&amp;quot;, sans-serif; text-align: start; background-color: rgb(251, 251, 251);&quot;&gt;&lt;font style=&quot;font-size: 20px;&quot;&gt;© 2023 Webtech Bookstore. All Rights Reserved .&lt;/font&gt;&lt;/span&gt;" style="text;html=1;strokeColor=none;fillColor=none;align=center;verticalAlign=middle;whiteSpace=wrap;rounded=0;labelBackgroundColor=none;sketch=0;fontSize=20;fontColor=#58974a;" parent="Fp4AKJfs3A7mnwe-e1Vw-1" vertex="1">
                    <mxGeometry x="200" y="1520" width="500" height="50" as="geometry"/>
                </mxCell>
                <mxCell id="Fp4AKJfs3A7mnwe-e1Vw-48" value="" style="line;strokeWidth=2;html=1;labelBackgroundColor=none;sketch=0;fontSize=20;fontColor=#58974a;fillColor=#fbfbfb;" parent="Fp4AKJfs3A7mnwe-e1Vw-1" vertex="1">
                    <mxGeometry x="440" y="1170" width="610" height="10" as="geometry"/>
                </mxCell>
                <mxCell id="idF_PgGCUsawZDpE1DyE-1" value="&lt;b&gt;Results&lt;/b&gt;" style="text;html=1;strokeColor=none;fillColor=none;align=center;verticalAlign=middle;whiteSpace=wrap;rounded=0;labelBackgroundColor=none;sketch=0;fontSize=20;fontColor=#000000;" parent="Fp4AKJfs3A7mnwe-e1Vw-1" vertex="1">
                    <mxGeometry x="200" y="180" width="150" height="30" as="geometry"/>
                </mxCell>
                <mxCell id="ZIhyKj1c4XQEV4r6B6Jz-5" value="" style="group" parent="Fp4AKJfs3A7mnwe-e1Vw-1" vertex="1" connectable="0">
                    <mxGeometry x="610" y="350" width="810" height="300" as="geometry"/>
                </mxCell>
                <mxCell id="ZIhyKj1c4XQEV4r6B6Jz-6" value="" style="rounded=0;whiteSpace=wrap;html=1;labelBackgroundColor=none;sketch=0;fontSize=20;fontColor=#58974a;fillColor=#FFFFFF;" parent="ZIhyKj1c4XQEV4r6B6Jz-5" vertex="1">
                    <mxGeometry width="810" height="300" as="geometry"/>
                </mxCell>
                <mxCell id="ZIhyKj1c4XQEV4r6B6Jz-7" value="&lt;font style=&quot;font-size: 60px;&quot;&gt;Image&lt;/font&gt;" style="rounded=0;whiteSpace=wrap;html=1;labelBackgroundColor=none;sketch=0;strokeColor=#F5F5F5;fontSize=20;fontColor=#000000;fillColor=#FBFBFB;" parent="ZIhyKj1c4XQEV4r6B6Jz-5" vertex="1">
                    <mxGeometry width="290" height="300" as="geometry"/>
                </mxCell>
                <mxCell id="ZIhyKj1c4XQEV4r6B6Jz-8" value="&lt;font style=&quot;font-size: 40px;&quot;&gt;Title&lt;/font&gt;" style="rounded=0;whiteSpace=wrap;html=1;labelBackgroundColor=none;sketch=0;strokeColor=#F5F5F5;fontSize=60;fontColor=#000000;fillColor=#FFFFFF;" parent="ZIhyKj1c4XQEV4r6B6Jz-5" vertex="1">
                    <mxGeometry x="290" width="120" height="60" as="geometry"/>
                </mxCell>
                <mxCell id="ZIhyKj1c4XQEV4r6B6Jz-9" value="&lt;font style=&quot;font-size: 20px;&quot;&gt;Author&lt;/font&gt;" style="rounded=0;whiteSpace=wrap;html=1;labelBackgroundColor=none;sketch=0;strokeColor=#F5F5F5;fontSize=40;fontColor=#000000;fillColor=#FFFFFF;" parent="ZIhyKj1c4XQEV4r6B6Jz-5" vertex="1">
                    <mxGeometry x="290" y="60" width="120" height="60" as="geometry"/>
                </mxCell>
                <mxCell id="ZIhyKj1c4XQEV4r6B6Jz-10" value="&lt;font style=&quot;font-size: 20px;&quot;&gt;Publish Date&lt;/font&gt;" style="rounded=0;whiteSpace=wrap;html=1;labelBackgroundColor=none;sketch=0;strokeColor=#F5F5F5;fontSize=40;fontColor=#000000;fillColor=#FFFFFF;" parent="ZIhyKj1c4XQEV4r6B6Jz-5" vertex="1">
                    <mxGeometry x="290" y="120" width="120" height="60" as="geometry"/>
                </mxCell>
                <mxCell id="ZIhyKj1c4XQEV4r6B6Jz-11" value="&lt;font style=&quot;font-size: 40px;&quot;&gt;Price&lt;/font&gt;" style="rounded=0;whiteSpace=wrap;html=1;labelBackgroundColor=none;sketch=0;strokeColor=#F5F5F5;fontSize=60;fontColor=#000000;fillColor=#FFFFFF;" parent="ZIhyKj1c4XQEV4r6B6Jz-5" vertex="1">
                    <mxGeometry x="290" y="180" width="120" height="60" as="geometry"/>
                </mxCell>
                <mxCell id="ZIhyKj1c4XQEV4r6B6Jz-19" value="" style="group" parent="Fp4AKJfs3A7mnwe-e1Vw-1" vertex="1" connectable="0">
                    <mxGeometry x="610" y="720" width="820" height="300" as="geometry"/>
                </mxCell>
                <mxCell id="ZIhyKj1c4XQEV4r6B6Jz-20" value="" style="rounded=0;whiteSpace=wrap;html=1;labelBackgroundColor=none;sketch=0;fontSize=20;fontColor=#58974a;fillColor=#FFFFFF;" parent="ZIhyKj1c4XQEV4r6B6Jz-19" vertex="1">
                    <mxGeometry width="820" height="300" as="geometry"/>
                </mxCell>
                <mxCell id="ZIhyKj1c4XQEV4r6B6Jz-21" value="&lt;font style=&quot;font-size: 60px;&quot;&gt;Image&lt;/font&gt;" style="rounded=0;whiteSpace=wrap;html=1;labelBackgroundColor=none;sketch=0;strokeColor=#F5F5F5;fontSize=20;fontColor=#000000;fillColor=#FBFBFB;" parent="ZIhyKj1c4XQEV4r6B6Jz-19" vertex="1">
                    <mxGeometry width="290" height="300" as="geometry"/>
                </mxCell>
                <mxCell id="ZIhyKj1c4XQEV4r6B6Jz-22" value="&lt;font style=&quot;font-size: 40px;&quot;&gt;Title&lt;/font&gt;" style="rounded=0;whiteSpace=wrap;html=1;labelBackgroundColor=none;sketch=0;strokeColor=#F5F5F5;fontSize=60;fontColor=#000000;fillColor=#FFFFFF;" parent="ZIhyKj1c4XQEV4r6B6Jz-19" vertex="1">
                    <mxGeometry x="290" width="120" height="60" as="geometry"/>
                </mxCell>
                <mxCell id="ZIhyKj1c4XQEV4r6B6Jz-23" value="&lt;font style=&quot;font-size: 20px;&quot;&gt;Author&lt;/font&gt;" style="rounded=0;whiteSpace=wrap;html=1;labelBackgroundColor=none;sketch=0;strokeColor=#F5F5F5;fontSize=40;fontColor=#000000;fillColor=#FFFFFF;" parent="ZIhyKj1c4XQEV4r6B6Jz-19" vertex="1">
                    <mxGeometry x="290" y="60" width="120" height="60" as="geometry"/>
                </mxCell>
                <mxCell id="ZIhyKj1c4XQEV4r6B6Jz-24" value="&lt;font style=&quot;font-size: 20px;&quot;&gt;Publish Date&lt;/font&gt;" style="rounded=0;whiteSpace=wrap;html=1;labelBackgroundColor=none;sketch=0;strokeColor=#F5F5F5;fontSize=40;fontColor=#000000;fillColor=#FFFFFF;" parent="ZIhyKj1c4XQEV4r6B6Jz-19" vertex="1">
                    <mxGeometry x="290" y="120" width="120" height="60" as="geometry"/>
                </mxCell>
                <mxCell id="ZIhyKj1c4XQEV4r6B6Jz-25" value="&lt;font style=&quot;font-size: 40px;&quot;&gt;Price&lt;/font&gt;" style="rounded=0;whiteSpace=wrap;html=1;labelBackgroundColor=none;sketch=0;strokeColor=#F5F5F5;fontSize=60;fontColor=#000000;fillColor=#FFFFFF;" parent="ZIhyKj1c4XQEV4r6B6Jz-19" vertex="1">
                    <mxGeometry x="290" y="180" width="120" height="60" as="geometry"/>
                </mxCell>
                <mxCell id="ZIhyKj1c4XQEV4r6B6Jz-26" value="" style="line;strokeWidth=2;html=1;labelBackgroundColor=none;sketch=0;fontSize=20;fontColor=#58974a;fillColor=#fbfbfb;" parent="Fp4AKJfs3A7mnwe-e1Vw-1" vertex="1">
                    <mxGeometry x="450" y="1530" width="610" height="10" as="geometry"/>
                </mxCell>
                <mxCell id="4IpYIwnByWF70x0005TG-0" value="&lt;font style=&quot;font-size: 60px;&quot;&gt;Floating Sidebar&lt;/font&gt;" style="rounded=0;whiteSpace=wrap;html=1;labelBackgroundColor=none;sketch=0;strokeColor=#F5F5F5;fontSize=20;fontColor=#000000;fillColor=#FFFFFF;" parent="Fp4AKJfs3A7mnwe-e1Vw-1" vertex="1">
                    <mxGeometry x="240" y="240" width="330" height="700" as="geometry"/>
                </mxCell>
                <mxCell id="4IpYIwnByWF70x0005TG-1" value="Filtering Option" style="rounded=0;whiteSpace=wrap;html=1;labelBackgroundColor=none;sketch=0;strokeColor=#F5F5F5;fontSize=60;fontColor=#000000;fillColor=#FFFFFF;" parent="Fp4AKJfs3A7mnwe-e1Vw-1" vertex="1">
                    <mxGeometry x="610" y="240" width="810" height="70" as="geometry"/>
                </mxCell>
            </root>
        </mxGraphModel>
    </diagram>
    <diagram name="Book Collections Origin" id="kH_QIfv_KPjo0cHe89gN">
        <mxGraphModel dx="2353" dy="1040" grid="1" gridSize="10" guides="1" tooltips="1" connect="1" arrows="1" fold="1" page="1" pageScale="1" pageWidth="850" pageHeight="1100" math="0" shadow="0">
            <root>
                <mxCell id="Kj4567IVf0mSsLqaV3BX-0"/>
                <mxCell id="Kj4567IVf0mSsLqaV3BX-1" parent="Kj4567IVf0mSsLqaV3BX-0"/>
                <mxCell id="Kj4567IVf0mSsLqaV3BX-2" value="" style="rounded=0;whiteSpace=wrap;html=1;labelBackgroundColor=none;sketch=0;fontSize=17;fontColor=#58974a;fillColor=#f5f5f5;" parent="Kj4567IVf0mSsLqaV3BX-1" vertex="1">
                    <mxGeometry y="160" width="1600" height="1080" as="geometry"/>
                </mxCell>
                <mxCell id="Kj4567IVf0mSsLqaV3BX-3" value="" style="html=1;shadow=0;dashed=0;shape=mxgraph.bootstrap.rect;fillColor=#222222;strokeColor=none;whiteSpace=wrap;rounded=0;fontSize=12;fontColor=#000000;align=center;" parent="Kj4567IVf0mSsLqaV3BX-1" vertex="1">
                    <mxGeometry width="1600" height="160" as="geometry"/>
                </mxCell>
                <mxCell id="Kj4567IVf0mSsLqaV3BX-4" value="" style="html=1;shadow=0;dashed=0;shape=mxgraph.bootstrap.rrect;rSize=5;strokeColor=#dddddd;rounded=0;fontSize=12;align=center;" parent="Kj4567IVf0mSsLqaV3BX-1" vertex="1">
                    <mxGeometry x="1170" y="2463" width="330" height="400" as="geometry"/>
                </mxCell>
                <mxCell id="Kj4567IVf0mSsLqaV3BX-5" value="320x200" style="shape=rect;fontSize=24;fillColor=#f0f0f0;strokeColor=none;fontColor=#999999;whiteSpace=wrap;" parent="Kj4567IVf0mSsLqaV3BX-4" vertex="1">
                    <mxGeometry x="5" y="5" width="320" height="200" as="geometry"/>
                </mxCell>
                <mxCell id="Kj4567IVf0mSsLqaV3BX-6" value="Thumbnail label" style="html=1;shadow=0;dashed=0;shape=mxgraph.bootstrap.anchor;fontSize=26;align=left;whiteSpace=wrap;" parent="Kj4567IVf0mSsLqaV3BX-4" vertex="1">
                    <mxGeometry x="15" y="220" width="300" height="40" as="geometry"/>
                </mxCell>
                <mxCell id="Kj4567IVf0mSsLqaV3BX-7" value="Cras justo odio, dapibus ac facilisis in, egestas eget quam. Donec id elit non mi porta gravida at eget metus. Nullam id dolor id nibh ultricies vehicula ut id elit." style="html=1;shadow=0;dashed=0;shape=mxgraph.bootstrap.anchor;strokeColor=#dddddd;whiteSpace=wrap;align=left;verticalAlign=top;fontSize=14;whiteSpace=wrap;" parent="Kj4567IVf0mSsLqaV3BX-4" vertex="1">
                    <mxGeometry x="15" y="260" width="300" height="80" as="geometry"/>
                </mxCell>
                <mxCell id="Kj4567IVf0mSsLqaV3BX-8" value="Button" style="html=1;shadow=0;dashed=0;shape=mxgraph.bootstrap.rrect;rSize=5;fontSize=16;fillColor=#3D8BCD;strokeColor=none;fontColor=#ffffff;whiteSpace=wrap;" parent="Kj4567IVf0mSsLqaV3BX-4" vertex="1">
                    <mxGeometry y="1" width="80" height="40" relative="1" as="geometry">
                        <mxPoint x="15" y="-60" as="offset"/>
                    </mxGeometry>
                </mxCell>
                <mxCell id="Kj4567IVf0mSsLqaV3BX-9" value="Button" style="html=1;shadow=0;dashed=0;shape=mxgraph.bootstrap.rrect;rSize=5;fontSize=16;strokeColor=#dddddd;whiteSpace=wrap;" parent="Kj4567IVf0mSsLqaV3BX-4" vertex="1">
                    <mxGeometry y="1" width="80" height="40" relative="1" as="geometry">
                        <mxPoint x="100" y="-60" as="offset"/>
                    </mxGeometry>
                </mxCell>
                <mxCell id="Kj4567IVf0mSsLqaV3BX-10" value="Tap target" style="html=1;shadow=0;dashed=0;shape=mxgraph.bootstrap.rect;strokeColor=none;fillColor=none;fontColor=#999999;align=left;spacingLeft=5;whiteSpace=wrap;rounded=0;" parent="Kj4567IVf0mSsLqaV3BX-1" vertex="1">
                    <mxGeometry x="525" y="2373" width="200" height="20" as="geometry"/>
                </mxCell>
                <mxCell id="Kj4567IVf0mSsLqaV3BX-11" value="Profile Screen" style="html=1;shadow=0;dashed=0;shape=mxgraph.bootstrap.rrect;rSize=5;strokeColor=#dddddd;align=left;spacingLeft=10;fontSize=16;whiteSpace=wrap;rounded=0;" parent="Kj4567IVf0mSsLqaV3BX-1" vertex="1">
                    <mxGeometry x="525" y="2393" width="390" height="40" as="geometry"/>
                </mxCell>
                <mxCell id="Kj4567IVf0mSsLqaV3BX-12" value="" style="shape=triangle;strokeColor=none;fillColor=#000000;direction=south;rounded=0;shadow=1;fontSize=12;fontColor=#000000;align=center;html=1;" parent="Kj4567IVf0mSsLqaV3BX-1" vertex="1">
                    <mxGeometry x="895" y="2410" width="10" height="5" as="geometry"/>
                </mxCell>
                <mxCell id="Kj4567IVf0mSsLqaV3BX-13" value="Send to Group" style="html=1;shadow=0;dashed=0;shape=mxgraph.bootstrap.rect;strokeColor=none;fillColor=none;fontColor=#999999;align=left;spacingLeft=5;whiteSpace=wrap;rounded=0;" parent="Kj4567IVf0mSsLqaV3BX-1" vertex="1">
                    <mxGeometry x="130" y="2370" width="200" height="20" as="geometry"/>
                </mxCell>
                <mxCell id="Kj4567IVf0mSsLqaV3BX-14" value="Top Management" style="html=1;shadow=0;dashed=0;shape=mxgraph.bootstrap.checkbox;fontSize=12;strokeColor=#999999;align=left;labelPosition=right;spacingLeft=5;rounded=0;" parent="Kj4567IVf0mSsLqaV3BX-1" vertex="1">
                    <mxGeometry x="140" y="2393" width="14" height="14" as="geometry"/>
                </mxCell>
                <mxCell id="Kj4567IVf0mSsLqaV3BX-15" value="Marketing Department" style="html=1;shadow=0;dashed=0;shape=mxgraph.bootstrap.rrect;fontSize=12;rSize=3;strokeColor=#999999;align=left;labelPosition=right;spacingLeft=5;rounded=0;" parent="Kj4567IVf0mSsLqaV3BX-1" vertex="1">
                    <mxGeometry x="140" y="2413" width="14" height="14" as="geometry"/>
                </mxCell>
                <mxCell id="Kj4567IVf0mSsLqaV3BX-16" value="Design Department" style="html=1;shadow=0;dashed=0;shape=mxgraph.bootstrap.checkbox;fontSize=12;strokeColor=#999999;align=left;labelPosition=right;spacingLeft=5;rounded=0;" parent="Kj4567IVf0mSsLqaV3BX-1" vertex="1">
                    <mxGeometry x="140" y="2433" width="14" height="14" as="geometry"/>
                </mxCell>
                <mxCell id="Kj4567IVf0mSsLqaV3BX-17" value="Financial Department" style="html=1;shadow=0;dashed=0;shape=mxgraph.bootstrap.rrect;fontSize=12;rSize=3;strokeColor=#999999;align=left;labelPosition=right;spacingLeft=5;rounded=0;" parent="Kj4567IVf0mSsLqaV3BX-1" vertex="1">
                    <mxGeometry x="140" y="2453" width="14" height="14" as="geometry"/>
                </mxCell>
                <mxCell id="Kj4567IVf0mSsLqaV3BX-18" value="Supply Department" style="html=1;shadow=0;dashed=0;shape=mxgraph.bootstrap.rrect;fontSize=12;rSize=3;strokeColor=#999999;align=left;labelPosition=right;spacingLeft=5;rounded=0;" parent="Kj4567IVf0mSsLqaV3BX-1" vertex="1">
                    <mxGeometry x="140" y="2473" width="14" height="14" as="geometry"/>
                </mxCell>
                <mxCell id="Kj4567IVf0mSsLqaV3BX-19" value="Set Type" style="html=1;shadow=0;dashed=0;shape=mxgraph.bootstrap.rect;strokeColor=none;fillColor=none;fontColor=#999999;align=left;spacingLeft=5;whiteSpace=wrap;rounded=0;" parent="Kj4567IVf0mSsLqaV3BX-1" vertex="1">
                    <mxGeometry x="525" y="2453" width="200" height="20" as="geometry"/>
                </mxCell>
                <mxCell id="Kj4567IVf0mSsLqaV3BX-20" value="" style="shape=ellipse;dashed=0;strokeColor=#999999;fillColor=#ffffff;html=1;rounded=0;shadow=1;fontSize=12;fontColor=#000000;align=center;" parent="Kj4567IVf0mSsLqaV3BX-1" vertex="1">
                    <mxGeometry x="535" y="2476" width="14" height="14" as="geometry"/>
                </mxCell>
                <mxCell id="Kj4567IVf0mSsLqaV3BX-21" value="News" style="html=1;shadow=0;dashed=0;shape=mxgraph.bootstrap.rrect;align=center;rSize=3;strokeColor=none;fillColor=#58B957;fontColor=#ffffff;fontStyle=1;fontSize=10;whiteSpace=wrap;rounded=0;" parent="Kj4567IVf0mSsLqaV3BX-1" vertex="1">
                    <mxGeometry x="555" y="2476" width="40" height="14" as="geometry"/>
                </mxCell>
                <mxCell id="Kj4567IVf0mSsLqaV3BX-22" value="" style="html=1;shadow=0;dashed=0;shape=mxgraph.bootstrap.radioButton;strokeColor=#999999;fillColor=#ffffff;rounded=0;fontSize=12;fontColor=#000000;align=center;" parent="Kj4567IVf0mSsLqaV3BX-1" vertex="1">
                    <mxGeometry x="535" y="2496" width="14" height="14" as="geometry"/>
                </mxCell>
                <mxCell id="Kj4567IVf0mSsLqaV3BX-23" value="Reports" style="html=1;shadow=0;dashed=0;shape=mxgraph.bootstrap.rrect;align=center;rSize=3;strokeColor=none;fillColor=#55BFE0;fontColor=#ffffff;fontStyle=1;fontSize=10;whiteSpace=wrap;rounded=0;" parent="Kj4567IVf0mSsLqaV3BX-1" vertex="1">
                    <mxGeometry x="555" y="2496" width="50" height="14" as="geometry"/>
                </mxCell>
                <mxCell id="Kj4567IVf0mSsLqaV3BX-24" value="" style="shape=ellipse;dashed=0;strokeColor=#999999;fillColor=#ffffff;html=1;rounded=0;shadow=1;fontSize=12;fontColor=#000000;align=center;" parent="Kj4567IVf0mSsLqaV3BX-1" vertex="1">
                    <mxGeometry x="535" y="2516" width="14" height="14" as="geometry"/>
                </mxCell>
                <mxCell id="Kj4567IVf0mSsLqaV3BX-25" value="Documents" style="html=1;shadow=0;dashed=0;shape=mxgraph.bootstrap.rrect;align=center;rSize=3;strokeColor=none;fillColor=#EFAC43;fontColor=#ffffff;fontStyle=1;fontSize=10;whiteSpace=wrap;rounded=0;" parent="Kj4567IVf0mSsLqaV3BX-1" vertex="1">
                    <mxGeometry x="555" y="2516" width="70" height="14" as="geometry"/>
                </mxCell>
                <mxCell id="Kj4567IVf0mSsLqaV3BX-26" value="" style="shape=ellipse;dashed=0;strokeColor=#999999;fillColor=#ffffff;html=1;rounded=0;shadow=1;fontSize=12;fontColor=#000000;align=center;" parent="Kj4567IVf0mSsLqaV3BX-1" vertex="1">
                    <mxGeometry x="535" y="2536" width="14" height="14" as="geometry"/>
                </mxCell>
                <mxCell id="Kj4567IVf0mSsLqaV3BX-27" value="Media" style="html=1;shadow=0;dashed=0;shape=mxgraph.bootstrap.rrect;align=center;rSize=3;strokeColor=none;fillColor=#3D8BCD;fontColor=#ffffff;fontStyle=1;fontSize=10;whiteSpace=wrap;rounded=0;" parent="Kj4567IVf0mSsLqaV3BX-1" vertex="1">
                    <mxGeometry x="555" y="2536" width="40" height="14" as="geometry"/>
                </mxCell>
                <mxCell id="Kj4567IVf0mSsLqaV3BX-28" value="" style="shape=ellipse;dashed=0;strokeColor=#999999;fillColor=#ffffff;html=1;rounded=0;shadow=1;fontSize=12;fontColor=#000000;align=center;" parent="Kj4567IVf0mSsLqaV3BX-1" vertex="1">
                    <mxGeometry x="535" y="2556" width="14" height="14" as="geometry"/>
                </mxCell>
                <mxCell id="Kj4567IVf0mSsLqaV3BX-29" value="Text" style="html=1;shadow=0;dashed=0;shape=mxgraph.bootstrap.rrect;align=center;rSize=3;strokeColor=none;fillColor=#999999;fontColor=#ffffff;fontStyle=1;fontSize=10;whiteSpace=wrap;rounded=0;" parent="Kj4567IVf0mSsLqaV3BX-1" vertex="1">
                    <mxGeometry x="555" y="2556" width="30" height="14" as="geometry"/>
                </mxCell>
                <mxCell id="Kj4567IVf0mSsLqaV3BX-30" value="Save Template" style="html=1;shadow=0;dashed=0;shape=mxgraph.bootstrap.rrect;align=center;rSize=5;strokeColor=none;fillColor=#3D8BCD;fontColor=#ffffff;fontSize=16;whiteSpace=wrap;rounded=0;" parent="Kj4567IVf0mSsLqaV3BX-1" vertex="1">
                    <mxGeometry x="130" y="2530" width="150" height="40" as="geometry"/>
                </mxCell>
                <mxCell id="Kj4567IVf0mSsLqaV3BX-31" value="Cancel" style="html=1;shadow=0;dashed=0;shape=mxgraph.bootstrap.rrect;align=center;rSize=5;strokeColor=#dddddd;fontSize=16;whiteSpace=wrap;rounded=0;" parent="Kj4567IVf0mSsLqaV3BX-1" vertex="1">
                    <mxGeometry x="300" y="2530" width="100" height="40" as="geometry"/>
                </mxCell>
                <mxCell id="Kj4567IVf0mSsLqaV3BX-32" value="Delete Template" style="html=1;shadow=0;dashed=0;shape=mxgraph.bootstrap.rrect;align=center;rSize=5;strokeColor=none;fillColor=#DB524C;fontColor=#ffffff;fontSize=16;whiteSpace=wrap;rounded=0;" parent="Kj4567IVf0mSsLqaV3BX-1" vertex="1">
                    <mxGeometry x="745" y="2613" width="170" height="40" as="geometry"/>
                </mxCell>
                <mxCell id="Kj4567IVf0mSsLqaV3BX-33" value="&lt;b style=&quot;font-size: 17px;&quot;&gt;&lt;font color=&quot;#878787&quot; style=&quot;font-size: 17px;&quot;&gt;1&lt;/font&gt;&lt;font style=&quot;font-size: 17px;&quot; color=&quot;#49788b&quot;&gt;&amp;nbsp; Webtech&lt;/font&gt;&lt;font style=&quot;font-size: 17px;&quot; color=&quot;#3e9486&quot;&gt; Bookstore&lt;/font&gt;&lt;font style=&quot;font-size: 17px;&quot; color=&quot;#c9c375&quot;&gt;()&lt;/font&gt;&lt;font style=&quot;font-size: 17px;&quot; color=&quot;#ffffff&quot;&gt;:&lt;/font&gt;&lt;/b&gt;" style="html=1;shadow=0;dashed=0;fillColor=none;strokeColor=none;shape=mxgraph.bootstrap.rect;fontColor=#999999;fontSize=14;whiteSpace=wrap;" parent="Kj4567IVf0mSsLqaV3BX-1" vertex="1">
                    <mxGeometry x="200" y="40" width="200" height="80" as="geometry"/>
                </mxCell>
                <mxCell id="Kj4567IVf0mSsLqaV3BX-34" value="&amp;nbsp; &lt;font color=&quot;#36ce77&quot;&gt;WBstore@lnoueryo&lt;/font&gt;&lt;font color=&quot;#ffffff&quot;&gt;:~ $ python for beginner&lt;/font&gt;" style="rounded=1;whiteSpace=wrap;html=1;fontSize=17;fontColor=#49788b;align=left;" parent="Kj4567IVf0mSsLqaV3BX-1" vertex="1">
                    <mxGeometry x="440" y="50" width="960" height="60" as="geometry"/>
                </mxCell>
                <mxCell id="Kj4567IVf0mSsLqaV3BX-35" value="" style="group" parent="Kj4567IVf0mSsLqaV3BX-1" vertex="1" connectable="0">
                    <mxGeometry x="1300" y="60" width="80" height="40" as="geometry"/>
                </mxCell>
                <mxCell id="Kj4567IVf0mSsLqaV3BX-36" value="" style="rounded=1;whiteSpace=wrap;html=1;labelBackgroundColor=#FFFFFF;sketch=0;fontSize=17;fontColor=#FFFFFF;fillColor=#FFFFFF;" parent="Kj4567IVf0mSsLqaV3BX-35" vertex="1">
                    <mxGeometry width="80" height="40" as="geometry"/>
                </mxCell>
                <mxCell id="Kj4567IVf0mSsLqaV3BX-37" value="" style="shape=image;verticalLabelPosition=bottom;labelBackgroundColor=default;verticalAlign=top;aspect=fixed;imageAspect=0;image=data:image/svg+xml,PHN2ZyB4bWxucz0iaHR0cDovL3d3dy53My5vcmcvMjAwMC9zdmciIHZpZXdCb3g9IjAgMCAyNCAyNCI+PHBhdGggZD0iTTkuNSwzQTYuNSw2LjUgMCAwLDEgMTYsOS41QzE2LDExLjExIDE1LjQxLDEyLjU5IDE0LjQ0LDEzLjczTDE0LjcxLDE0SDE1LjVMMjAuNSwxOUwxOSwyMC41TDE0LDE1LjVWMTQuNzFMMTMuNzMsMTQuNDRDMTIuNTksMTUuNDEgMTEuMTEsMTYgOS41LDE2QTYuNSw2LjUgMCAwLDEgMyw5LjVBNi41LDYuNSAwIDAsMSA5LjUsM005LjUsNUM3LDUgNSw3IDUsOS41QzUsMTIgNywxNCA5LjUsMTRDMTIsMTQgMTQsMTIgMTQsOS41QzE0LDcgMTIsNSA5LjUsNVoiLz48L3N2Zz4=;" parent="Kj4567IVf0mSsLqaV3BX-35" vertex="1">
                    <mxGeometry x="28" y="8" width="24" height="24" as="geometry"/>
                </mxCell>
                <mxCell id="Kj4567IVf0mSsLqaV3BX-38" value="&lt;font color=&quot;#d38b70&quot;&gt;&lt;b&gt;Frontend&lt;/b&gt;&lt;/font&gt;" style="text;html=1;strokeColor=none;fillColor=none;align=center;verticalAlign=middle;whiteSpace=wrap;rounded=0;labelBackgroundColor=none;sketch=0;fontSize=17;fontColor=#FFFFFF;" parent="Kj4567IVf0mSsLqaV3BX-1" vertex="1">
                    <mxGeometry x="440" y="110" width="160" height="50" as="geometry"/>
                </mxCell>
                <mxCell id="Kj4567IVf0mSsLqaV3BX-39" value="&lt;font color=&quot;#7ac1e0&quot;&gt;&lt;b&gt;Backend&lt;/b&gt;&lt;/font&gt;" style="text;html=1;strokeColor=none;fillColor=none;align=center;verticalAlign=middle;whiteSpace=wrap;rounded=0;labelBackgroundColor=none;sketch=0;fontSize=17;fontColor=#FFFFFF;" parent="Kj4567IVf0mSsLqaV3BX-1" vertex="1">
                    <mxGeometry x="600" y="110" width="160" height="50" as="geometry"/>
                </mxCell>
                <mxCell id="Kj4567IVf0mSsLqaV3BX-40" value="&lt;b&gt;&lt;font color=&quot;#58974a&quot;&gt;# DevOps&lt;/font&gt;&lt;/b&gt;" style="text;html=1;strokeColor=none;fillColor=none;align=center;verticalAlign=middle;whiteSpace=wrap;rounded=0;labelBackgroundColor=none;sketch=0;fontSize=17;fontColor=#FFFFFF;" parent="Kj4567IVf0mSsLqaV3BX-1" vertex="1">
                    <mxGeometry x="920" y="110" width="160" height="50" as="geometry"/>
                </mxCell>
                <mxCell id="Kj4567IVf0mSsLqaV3BX-41" value="&lt;b&gt;&lt;font color=&quot;#58974a&quot;&gt;# SRE&lt;/font&gt;&lt;/b&gt;" style="text;html=1;strokeColor=none;fillColor=none;align=center;verticalAlign=middle;whiteSpace=wrap;rounded=0;labelBackgroundColor=none;sketch=0;fontSize=17;fontColor=#FFFFFF;" parent="Kj4567IVf0mSsLqaV3BX-1" vertex="1">
                    <mxGeometry x="1080" y="110" width="160" height="50" as="geometry"/>
                </mxCell>
                <mxCell id="Kj4567IVf0mSsLqaV3BX-42" value="&lt;b&gt;&lt;font color=&quot;#58974a&quot;&gt;# QA&lt;/font&gt;&lt;/b&gt;" style="text;html=1;strokeColor=none;fillColor=none;align=center;verticalAlign=middle;whiteSpace=wrap;rounded=0;labelBackgroundColor=none;sketch=0;fontSize=17;fontColor=#FFFFFF;" parent="Kj4567IVf0mSsLqaV3BX-1" vertex="1">
                    <mxGeometry x="1240" y="110" width="160" height="50" as="geometry"/>
                </mxCell>
                <mxCell id="Kj4567IVf0mSsLqaV3BX-43" value="&lt;font color=&quot;#bd77b1&quot;&gt;&lt;b&gt;Mobile&lt;/b&gt;&lt;/font&gt;" style="text;html=1;strokeColor=none;fillColor=none;align=center;verticalAlign=middle;whiteSpace=wrap;rounded=0;labelBackgroundColor=none;sketch=0;fontSize=17;fontColor=#FFFFFF;" parent="Kj4567IVf0mSsLqaV3BX-1" vertex="1">
                    <mxGeometry x="760" y="110" width="160" height="50" as="geometry"/>
                </mxCell>
                <mxCell id="Kj4567IVf0mSsLqaV3BX-44" value="&lt;font style=&quot;font-size: 60px;&quot;&gt;フッター&lt;/font&gt;" style="rounded=0;whiteSpace=wrap;html=1;labelBackgroundColor=none;sketch=0;fontSize=20;fontColor=#58974a;fillColor=#fbfbfb;" parent="Kj4567IVf0mSsLqaV3BX-1" vertex="1">
                    <mxGeometry y="1240" width="1600" height="330" as="geometry"/>
                </mxCell>
                <mxCell id="Kj4567IVf0mSsLqaV3BX-45" value="&lt;span style=&quot;color: rgba(0, 0, 0, 0.54); font-family: Roboto, &amp;quot;Helvetica Neue&amp;quot;, Helvetica, Arial, 文泉驛正黑, &amp;quot;WenQuanYi Zen Hei&amp;quot;, &amp;quot;Hiragino Sans GB&amp;quot;, &amp;quot;儷黑 Pro&amp;quot;, &amp;quot;LiHei Pro&amp;quot;, &amp;quot;Heiti TC&amp;quot;, 微軟正黑體, &amp;quot;Microsoft JhengHei UI&amp;quot;, &amp;quot;Microsoft JhengHei&amp;quot;, sans-serif; text-align: start; background-color: rgb(251, 251, 251);&quot;&gt;&lt;font style=&quot;font-size: 20px;&quot;&gt;© 2023 Webtech Bookstore. All Rights Reserved .&lt;/font&gt;&lt;/span&gt;" style="text;html=1;strokeColor=none;fillColor=none;align=center;verticalAlign=middle;whiteSpace=wrap;rounded=0;labelBackgroundColor=none;sketch=0;fontSize=20;fontColor=#58974a;" parent="Kj4567IVf0mSsLqaV3BX-1" vertex="1">
                    <mxGeometry x="200" y="1520" width="500" height="50" as="geometry"/>
                </mxCell>
                <mxCell id="Kj4567IVf0mSsLqaV3BX-46" value="" style="line;strokeWidth=2;html=1;labelBackgroundColor=none;sketch=0;fontSize=20;fontColor=#58974a;fillColor=#fbfbfb;" parent="Kj4567IVf0mSsLqaV3BX-1" vertex="1">
                    <mxGeometry x="440" y="1170" width="610" height="10" as="geometry"/>
                </mxCell>
                <mxCell id="Kj4567IVf0mSsLqaV3BX-47" value="&lt;b&gt;Results&lt;/b&gt;" style="text;html=1;strokeColor=none;fillColor=none;align=center;verticalAlign=middle;whiteSpace=wrap;rounded=0;labelBackgroundColor=none;sketch=0;fontSize=20;fontColor=#000000;" parent="Kj4567IVf0mSsLqaV3BX-1" vertex="1">
                    <mxGeometry x="200" y="180" width="150" height="30" as="geometry"/>
                </mxCell>
                <mxCell id="Kj4567IVf0mSsLqaV3BX-48" value="" style="group" parent="Kj4567IVf0mSsLqaV3BX-1" vertex="1" connectable="0">
                    <mxGeometry x="230" y="260" width="500" height="300" as="geometry"/>
                </mxCell>
                <mxCell id="Kj4567IVf0mSsLqaV3BX-49" value="" style="rounded=0;whiteSpace=wrap;html=1;labelBackgroundColor=none;sketch=0;fontSize=20;fontColor=#58974a;fillColor=#FFFFFF;" parent="Kj4567IVf0mSsLqaV3BX-48" vertex="1">
                    <mxGeometry width="500" height="300" as="geometry"/>
                </mxCell>
                <mxCell id="Kj4567IVf0mSsLqaV3BX-50" value="&lt;font style=&quot;font-size: 60px;&quot;&gt;Image&lt;/font&gt;" style="rounded=0;whiteSpace=wrap;html=1;labelBackgroundColor=none;sketch=0;strokeColor=#F5F5F5;fontSize=20;fontColor=#000000;fillColor=#FBFBFB;" parent="Kj4567IVf0mSsLqaV3BX-48" vertex="1">
                    <mxGeometry width="290" height="300" as="geometry"/>
                </mxCell>
                <mxCell id="Kj4567IVf0mSsLqaV3BX-51" value="&lt;font style=&quot;font-size: 40px;&quot;&gt;Title&lt;/font&gt;" style="rounded=0;whiteSpace=wrap;html=1;labelBackgroundColor=none;sketch=0;strokeColor=#F5F5F5;fontSize=60;fontColor=#000000;fillColor=#FFFFFF;" parent="Kj4567IVf0mSsLqaV3BX-48" vertex="1">
                    <mxGeometry x="290" width="120" height="60" as="geometry"/>
                </mxCell>
                <mxCell id="Kj4567IVf0mSsLqaV3BX-52" value="&lt;font style=&quot;font-size: 20px;&quot;&gt;Author&lt;/font&gt;" style="rounded=0;whiteSpace=wrap;html=1;labelBackgroundColor=none;sketch=0;strokeColor=#F5F5F5;fontSize=40;fontColor=#000000;fillColor=#FFFFFF;" parent="Kj4567IVf0mSsLqaV3BX-48" vertex="1">
                    <mxGeometry x="290" y="60" width="120" height="60" as="geometry"/>
                </mxCell>
                <mxCell id="Kj4567IVf0mSsLqaV3BX-53" value="&lt;font style=&quot;font-size: 20px;&quot;&gt;Publish Date&lt;/font&gt;" style="rounded=0;whiteSpace=wrap;html=1;labelBackgroundColor=none;sketch=0;strokeColor=#F5F5F5;fontSize=40;fontColor=#000000;fillColor=#FFFFFF;" parent="Kj4567IVf0mSsLqaV3BX-48" vertex="1">
                    <mxGeometry x="290" y="120" width="120" height="60" as="geometry"/>
                </mxCell>
                <mxCell id="Kj4567IVf0mSsLqaV3BX-54" value="&lt;font style=&quot;font-size: 40px;&quot;&gt;Price&lt;/font&gt;" style="rounded=0;whiteSpace=wrap;html=1;labelBackgroundColor=none;sketch=0;strokeColor=#F5F5F5;fontSize=60;fontColor=#000000;fillColor=#FFFFFF;" parent="Kj4567IVf0mSsLqaV3BX-48" vertex="1">
                    <mxGeometry x="290" y="180" width="120" height="60" as="geometry"/>
                </mxCell>
                <mxCell id="Kj4567IVf0mSsLqaV3BX-55" value="" style="group" parent="Kj4567IVf0mSsLqaV3BX-1" vertex="1" connectable="0">
                    <mxGeometry x="900" y="260" width="500" height="300" as="geometry"/>
                </mxCell>
                <mxCell id="Kj4567IVf0mSsLqaV3BX-56" value="" style="rounded=0;whiteSpace=wrap;html=1;labelBackgroundColor=none;sketch=0;fontSize=20;fontColor=#58974a;fillColor=#FFFFFF;" parent="Kj4567IVf0mSsLqaV3BX-55" vertex="1">
                    <mxGeometry width="500" height="300" as="geometry"/>
                </mxCell>
                <mxCell id="Kj4567IVf0mSsLqaV3BX-57" value="&lt;font style=&quot;font-size: 60px;&quot;&gt;Image&lt;/font&gt;" style="rounded=0;whiteSpace=wrap;html=1;labelBackgroundColor=none;sketch=0;strokeColor=#F5F5F5;fontSize=20;fontColor=#000000;fillColor=#FBFBFB;" parent="Kj4567IVf0mSsLqaV3BX-55" vertex="1">
                    <mxGeometry width="290" height="300" as="geometry"/>
                </mxCell>
                <mxCell id="Kj4567IVf0mSsLqaV3BX-58" value="&lt;font style=&quot;font-size: 40px;&quot;&gt;Title&lt;/font&gt;" style="rounded=0;whiteSpace=wrap;html=1;labelBackgroundColor=none;sketch=0;strokeColor=#F5F5F5;fontSize=60;fontColor=#000000;fillColor=#FFFFFF;" parent="Kj4567IVf0mSsLqaV3BX-55" vertex="1">
                    <mxGeometry x="290" width="120" height="60" as="geometry"/>
                </mxCell>
                <mxCell id="Kj4567IVf0mSsLqaV3BX-59" value="&lt;font style=&quot;font-size: 20px;&quot;&gt;Author&lt;/font&gt;" style="rounded=0;whiteSpace=wrap;html=1;labelBackgroundColor=none;sketch=0;strokeColor=#F5F5F5;fontSize=40;fontColor=#000000;fillColor=#FFFFFF;" parent="Kj4567IVf0mSsLqaV3BX-55" vertex="1">
                    <mxGeometry x="290" y="60" width="120" height="60" as="geometry"/>
                </mxCell>
                <mxCell id="Kj4567IVf0mSsLqaV3BX-60" value="&lt;font style=&quot;font-size: 20px;&quot;&gt;Publish Date&lt;/font&gt;" style="rounded=0;whiteSpace=wrap;html=1;labelBackgroundColor=none;sketch=0;strokeColor=#F5F5F5;fontSize=40;fontColor=#000000;fillColor=#FFFFFF;" parent="Kj4567IVf0mSsLqaV3BX-55" vertex="1">
                    <mxGeometry x="290" y="120" width="120" height="60" as="geometry"/>
                </mxCell>
                <mxCell id="Kj4567IVf0mSsLqaV3BX-61" value="&lt;font style=&quot;font-size: 40px;&quot;&gt;Price&lt;/font&gt;" style="rounded=0;whiteSpace=wrap;html=1;labelBackgroundColor=none;sketch=0;strokeColor=#F5F5F5;fontSize=60;fontColor=#000000;fillColor=#FFFFFF;" parent="Kj4567IVf0mSsLqaV3BX-55" vertex="1">
                    <mxGeometry x="290" y="180" width="120" height="60" as="geometry"/>
                </mxCell>
                <mxCell id="Kj4567IVf0mSsLqaV3BX-62" value="" style="group" parent="Kj4567IVf0mSsLqaV3BX-1" vertex="1" connectable="0">
                    <mxGeometry x="230" y="630" width="500" height="300" as="geometry"/>
                </mxCell>
                <mxCell id="Kj4567IVf0mSsLqaV3BX-63" value="" style="rounded=0;whiteSpace=wrap;html=1;labelBackgroundColor=none;sketch=0;fontSize=20;fontColor=#58974a;fillColor=#FFFFFF;" parent="Kj4567IVf0mSsLqaV3BX-62" vertex="1">
                    <mxGeometry width="500" height="300" as="geometry"/>
                </mxCell>
                <mxCell id="Kj4567IVf0mSsLqaV3BX-64" value="&lt;font style=&quot;font-size: 60px;&quot;&gt;Image&lt;/font&gt;" style="rounded=0;whiteSpace=wrap;html=1;labelBackgroundColor=none;sketch=0;strokeColor=#F5F5F5;fontSize=20;fontColor=#000000;fillColor=#FBFBFB;" parent="Kj4567IVf0mSsLqaV3BX-62" vertex="1">
                    <mxGeometry width="290" height="300" as="geometry"/>
                </mxCell>
                <mxCell id="Kj4567IVf0mSsLqaV3BX-65" value="&lt;font style=&quot;font-size: 40px;&quot;&gt;Title&lt;/font&gt;" style="rounded=0;whiteSpace=wrap;html=1;labelBackgroundColor=none;sketch=0;strokeColor=#F5F5F5;fontSize=60;fontColor=#000000;fillColor=#FFFFFF;" parent="Kj4567IVf0mSsLqaV3BX-62" vertex="1">
                    <mxGeometry x="290" width="120" height="60" as="geometry"/>
                </mxCell>
                <mxCell id="Kj4567IVf0mSsLqaV3BX-66" value="&lt;font style=&quot;font-size: 20px;&quot;&gt;Author&lt;/font&gt;" style="rounded=0;whiteSpace=wrap;html=1;labelBackgroundColor=none;sketch=0;strokeColor=#F5F5F5;fontSize=40;fontColor=#000000;fillColor=#FFFFFF;" parent="Kj4567IVf0mSsLqaV3BX-62" vertex="1">
                    <mxGeometry x="290" y="60" width="120" height="60" as="geometry"/>
                </mxCell>
                <mxCell id="Kj4567IVf0mSsLqaV3BX-67" value="&lt;font style=&quot;font-size: 20px;&quot;&gt;Publish Date&lt;/font&gt;" style="rounded=0;whiteSpace=wrap;html=1;labelBackgroundColor=none;sketch=0;strokeColor=#F5F5F5;fontSize=40;fontColor=#000000;fillColor=#FFFFFF;" parent="Kj4567IVf0mSsLqaV3BX-62" vertex="1">
                    <mxGeometry x="290" y="120" width="120" height="60" as="geometry"/>
                </mxCell>
                <mxCell id="Kj4567IVf0mSsLqaV3BX-68" value="&lt;font style=&quot;font-size: 40px;&quot;&gt;Price&lt;/font&gt;" style="rounded=0;whiteSpace=wrap;html=1;labelBackgroundColor=none;sketch=0;strokeColor=#F5F5F5;fontSize=60;fontColor=#000000;fillColor=#FFFFFF;" parent="Kj4567IVf0mSsLqaV3BX-62" vertex="1">
                    <mxGeometry x="290" y="180" width="120" height="60" as="geometry"/>
                </mxCell>
                <mxCell id="Kj4567IVf0mSsLqaV3BX-69" value="" style="group" parent="Kj4567IVf0mSsLqaV3BX-1" vertex="1" connectable="0">
                    <mxGeometry x="900" y="630" width="500" height="300" as="geometry"/>
                </mxCell>
                <mxCell id="Kj4567IVf0mSsLqaV3BX-70" value="" style="rounded=0;whiteSpace=wrap;html=1;labelBackgroundColor=none;sketch=0;fontSize=20;fontColor=#58974a;fillColor=#FFFFFF;" parent="Kj4567IVf0mSsLqaV3BX-69" vertex="1">
                    <mxGeometry width="500" height="300" as="geometry"/>
                </mxCell>
                <mxCell id="Kj4567IVf0mSsLqaV3BX-71" value="&lt;font style=&quot;font-size: 60px;&quot;&gt;Image&lt;/font&gt;" style="rounded=0;whiteSpace=wrap;html=1;labelBackgroundColor=none;sketch=0;strokeColor=#F5F5F5;fontSize=20;fontColor=#000000;fillColor=#FBFBFB;" parent="Kj4567IVf0mSsLqaV3BX-69" vertex="1">
                    <mxGeometry width="290" height="300" as="geometry"/>
                </mxCell>
                <mxCell id="Kj4567IVf0mSsLqaV3BX-72" value="&lt;font style=&quot;font-size: 40px;&quot;&gt;Title&lt;/font&gt;" style="rounded=0;whiteSpace=wrap;html=1;labelBackgroundColor=none;sketch=0;strokeColor=#F5F5F5;fontSize=60;fontColor=#000000;fillColor=#FFFFFF;" parent="Kj4567IVf0mSsLqaV3BX-69" vertex="1">
                    <mxGeometry x="290" width="120" height="60" as="geometry"/>
                </mxCell>
                <mxCell id="Kj4567IVf0mSsLqaV3BX-73" value="&lt;font style=&quot;font-size: 20px;&quot;&gt;Author&lt;/font&gt;" style="rounded=0;whiteSpace=wrap;html=1;labelBackgroundColor=none;sketch=0;strokeColor=#F5F5F5;fontSize=40;fontColor=#000000;fillColor=#FFFFFF;" parent="Kj4567IVf0mSsLqaV3BX-69" vertex="1">
                    <mxGeometry x="290" y="60" width="120" height="60" as="geometry"/>
                </mxCell>
                <mxCell id="Kj4567IVf0mSsLqaV3BX-74" value="&lt;font style=&quot;font-size: 20px;&quot;&gt;Publish Date&lt;/font&gt;" style="rounded=0;whiteSpace=wrap;html=1;labelBackgroundColor=none;sketch=0;strokeColor=#F5F5F5;fontSize=40;fontColor=#000000;fillColor=#FFFFFF;" parent="Kj4567IVf0mSsLqaV3BX-69" vertex="1">
                    <mxGeometry x="290" y="120" width="120" height="60" as="geometry"/>
                </mxCell>
                <mxCell id="Kj4567IVf0mSsLqaV3BX-75" value="&lt;font style=&quot;font-size: 40px;&quot;&gt;Price&lt;/font&gt;" style="rounded=0;whiteSpace=wrap;html=1;labelBackgroundColor=none;sketch=0;strokeColor=#F5F5F5;fontSize=60;fontColor=#000000;fillColor=#FFFFFF;" parent="Kj4567IVf0mSsLqaV3BX-69" vertex="1">
                    <mxGeometry x="290" y="180" width="120" height="60" as="geometry"/>
                </mxCell>
                <mxCell id="Kj4567IVf0mSsLqaV3BX-76" value="" style="line;strokeWidth=2;html=1;labelBackgroundColor=none;sketch=0;fontSize=20;fontColor=#58974a;fillColor=#fbfbfb;" parent="Kj4567IVf0mSsLqaV3BX-1" vertex="1">
                    <mxGeometry x="450" y="1530" width="610" height="10" as="geometry"/>
                </mxCell>
                <mxCell id="Kj4567IVf0mSsLqaV3BX-77" value="" style="group" parent="Kj4567IVf0mSsLqaV3BX-1" vertex="1" connectable="0">
                    <mxGeometry x="240" y="990" width="500" height="300" as="geometry"/>
                </mxCell>
                <mxCell id="Kj4567IVf0mSsLqaV3BX-78" value="" style="rounded=0;whiteSpace=wrap;html=1;labelBackgroundColor=none;sketch=0;fontSize=20;fontColor=#58974a;fillColor=#FFFFFF;" parent="Kj4567IVf0mSsLqaV3BX-77" vertex="1">
                    <mxGeometry width="500" height="300" as="geometry"/>
                </mxCell>
                <mxCell id="Kj4567IVf0mSsLqaV3BX-79" value="&lt;font style=&quot;font-size: 60px;&quot;&gt;Image&lt;/font&gt;" style="rounded=0;whiteSpace=wrap;html=1;labelBackgroundColor=none;sketch=0;strokeColor=#F5F5F5;fontSize=20;fontColor=#000000;fillColor=#FBFBFB;" parent="Kj4567IVf0mSsLqaV3BX-77" vertex="1">
                    <mxGeometry width="290" height="300" as="geometry"/>
                </mxCell>
                <mxCell id="Kj4567IVf0mSsLqaV3BX-80" value="&lt;font style=&quot;font-size: 40px;&quot;&gt;Title&lt;/font&gt;" style="rounded=0;whiteSpace=wrap;html=1;labelBackgroundColor=none;sketch=0;strokeColor=#F5F5F5;fontSize=60;fontColor=#000000;fillColor=#FFFFFF;" parent="Kj4567IVf0mSsLqaV3BX-77" vertex="1">
                    <mxGeometry x="290" width="120" height="60" as="geometry"/>
                </mxCell>
                <mxCell id="Kj4567IVf0mSsLqaV3BX-81" value="&lt;font style=&quot;font-size: 20px;&quot;&gt;Author&lt;/font&gt;" style="rounded=0;whiteSpace=wrap;html=1;labelBackgroundColor=none;sketch=0;strokeColor=#F5F5F5;fontSize=40;fontColor=#000000;fillColor=#FFFFFF;" parent="Kj4567IVf0mSsLqaV3BX-77" vertex="1">
                    <mxGeometry x="290" y="60" width="120" height="60" as="geometry"/>
                </mxCell>
                <mxCell id="Kj4567IVf0mSsLqaV3BX-82" value="&lt;font style=&quot;font-size: 20px;&quot;&gt;Publish Date&lt;/font&gt;" style="rounded=0;whiteSpace=wrap;html=1;labelBackgroundColor=none;sketch=0;strokeColor=#F5F5F5;fontSize=40;fontColor=#000000;fillColor=#FFFFFF;" parent="Kj4567IVf0mSsLqaV3BX-77" vertex="1">
                    <mxGeometry x="290" y="120" width="120" height="60" as="geometry"/>
                </mxCell>
                <mxCell id="Kj4567IVf0mSsLqaV3BX-83" value="&lt;font style=&quot;font-size: 40px;&quot;&gt;Price&lt;/font&gt;" style="rounded=0;whiteSpace=wrap;html=1;labelBackgroundColor=none;sketch=0;strokeColor=#F5F5F5;fontSize=60;fontColor=#000000;fillColor=#FFFFFF;" parent="Kj4567IVf0mSsLqaV3BX-77" vertex="1">
                    <mxGeometry x="290" y="180" width="120" height="60" as="geometry"/>
                </mxCell>
                <mxCell id="Kj4567IVf0mSsLqaV3BX-84" value="" style="group" parent="Kj4567IVf0mSsLqaV3BX-1" vertex="1" connectable="0">
                    <mxGeometry x="910" y="990" width="500" height="300" as="geometry"/>
                </mxCell>
                <mxCell id="Kj4567IVf0mSsLqaV3BX-85" value="" style="rounded=0;whiteSpace=wrap;html=1;labelBackgroundColor=none;sketch=0;fontSize=20;fontColor=#58974a;fillColor=#FFFFFF;" parent="Kj4567IVf0mSsLqaV3BX-84" vertex="1">
                    <mxGeometry width="500" height="300" as="geometry"/>
                </mxCell>
                <mxCell id="Kj4567IVf0mSsLqaV3BX-86" value="&lt;font style=&quot;font-size: 60px;&quot;&gt;Image&lt;/font&gt;" style="rounded=0;whiteSpace=wrap;html=1;labelBackgroundColor=none;sketch=0;strokeColor=#F5F5F5;fontSize=20;fontColor=#000000;fillColor=#FBFBFB;" parent="Kj4567IVf0mSsLqaV3BX-84" vertex="1">
                    <mxGeometry width="290" height="300" as="geometry"/>
                </mxCell>
                <mxCell id="Kj4567IVf0mSsLqaV3BX-87" value="&lt;font style=&quot;font-size: 40px;&quot;&gt;Title&lt;/font&gt;" style="rounded=0;whiteSpace=wrap;html=1;labelBackgroundColor=none;sketch=0;strokeColor=#F5F5F5;fontSize=60;fontColor=#000000;fillColor=#FFFFFF;" parent="Kj4567IVf0mSsLqaV3BX-84" vertex="1">
                    <mxGeometry x="290" width="120" height="60" as="geometry"/>
                </mxCell>
                <mxCell id="Kj4567IVf0mSsLqaV3BX-88" value="&lt;font style=&quot;font-size: 20px;&quot;&gt;Author&lt;/font&gt;" style="rounded=0;whiteSpace=wrap;html=1;labelBackgroundColor=none;sketch=0;strokeColor=#F5F5F5;fontSize=40;fontColor=#000000;fillColor=#FFFFFF;" parent="Kj4567IVf0mSsLqaV3BX-84" vertex="1">
                    <mxGeometry x="290" y="60" width="120" height="60" as="geometry"/>
                </mxCell>
                <mxCell id="Kj4567IVf0mSsLqaV3BX-89" value="&lt;font style=&quot;font-size: 20px;&quot;&gt;Publish Date&lt;/font&gt;" style="rounded=0;whiteSpace=wrap;html=1;labelBackgroundColor=none;sketch=0;strokeColor=#F5F5F5;fontSize=40;fontColor=#000000;fillColor=#FFFFFF;" parent="Kj4567IVf0mSsLqaV3BX-84" vertex="1">
                    <mxGeometry x="290" y="120" width="120" height="60" as="geometry"/>
                </mxCell>
                <mxCell id="Kj4567IVf0mSsLqaV3BX-90" value="&lt;font style=&quot;font-size: 40px;&quot;&gt;Price&lt;/font&gt;" style="rounded=0;whiteSpace=wrap;html=1;labelBackgroundColor=none;sketch=0;strokeColor=#F5F5F5;fontSize=60;fontColor=#000000;fillColor=#FFFFFF;" parent="Kj4567IVf0mSsLqaV3BX-84" vertex="1">
                    <mxGeometry x="290" y="180" width="120" height="60" as="geometry"/>
                </mxCell>
            </root>
        </mxGraphModel>
    </diagram>
</mxfile>